<mxfile host="app.diagrams.net" modified="2023-09-04T00:48:07.585Z" agent="Mozilla/5.0 (Windows NT 10.0; Win64; x64) AppleWebKit/537.36 (KHTML, like Gecko) Chrome/116.0.0.0 Safari/537.36 Edg/116.0.1938.62" etag="UihgpzjP0AFtfTQnlN_b" version="21.6.9" type="device">
  <diagram name="Page-1" id="y-zPi07FjmoY-JBa-DjT">
    <mxGraphModel dx="8060" dy="4947" grid="1" gridSize="10" guides="1" tooltips="1" connect="1" arrows="1" fold="1" page="1" pageScale="1" pageWidth="850" pageHeight="1100" math="0" shadow="0">
      <root>
        <mxCell id="0" />
        <mxCell id="1" parent="0" />
        <mxCell id="SeLx3FER-THGrYXA8y1y-204" value="Legenda" style="rounded=0;whiteSpace=wrap;html=1;fontFamily=Helvetica;fontSize=15;fontColor=default;verticalAlign=top;fontStyle=1" parent="1" vertex="1">
          <mxGeometry x="1470" y="1590" width="170" height="270" as="geometry" />
        </mxCell>
        <mxCell id="SeLx3FER-THGrYXA8y1y-40" value="" style="rounded=0;whiteSpace=wrap;html=1;fontSize=16;" parent="1" vertex="1">
          <mxGeometry x="10" y="160" width="280" height="330" as="geometry" />
        </mxCell>
        <mxCell id="SeLx3FER-THGrYXA8y1y-19" style="edgeStyle=orthogonalEdgeStyle;rounded=0;orthogonalLoop=1;jettySize=auto;html=1;entryX=1;entryY=0.5;entryDx=0;entryDy=0;startArrow=classic;startFill=1;fontSize=16;" parent="1" source="SeLx3FER-THGrYXA8y1y-1" target="SeLx3FER-THGrYXA8y1y-7" edge="1">
          <mxGeometry relative="1" as="geometry" />
        </mxCell>
        <mxCell id="SeLx3FER-THGrYXA8y1y-1" value="Aplicação" style="image;html=1;image=img/lib/clip_art/computers/Virtual_Application_128x128.png;fontSize=16;" parent="1" vertex="1">
          <mxGeometry x="360" y="220" width="80" height="80" as="geometry" />
        </mxCell>
        <mxCell id="SeLx3FER-THGrYXA8y1y-20" style="edgeStyle=orthogonalEdgeStyle;rounded=0;orthogonalLoop=1;jettySize=auto;html=1;entryX=1;entryY=0.5;entryDx=0;entryDy=0;startArrow=classic;startFill=1;fontSize=16;" parent="1" source="SeLx3FER-THGrYXA8y1y-3" target="SeLx3FER-THGrYXA8y1y-1" edge="1">
          <mxGeometry relative="1" as="geometry" />
        </mxCell>
        <mxCell id="SeLx3FER-THGrYXA8y1y-3" value="Usuário" style="image;aspect=fixed;perimeter=ellipsePerimeter;html=1;align=center;shadow=0;dashed=0;spacingTop=3;image=img/lib/active_directory/user.svg;fontSize=16;" parent="1" vertex="1">
          <mxGeometry x="530" y="180" width="18.5" height="50" as="geometry" />
        </mxCell>
        <mxCell id="SeLx3FER-THGrYXA8y1y-21" style="edgeStyle=orthogonalEdgeStyle;rounded=0;orthogonalLoop=1;jettySize=auto;html=1;entryX=1;entryY=0.5;entryDx=0;entryDy=0;startArrow=classic;startFill=1;fontSize=16;" parent="1" source="SeLx3FER-THGrYXA8y1y-5" target="SeLx3FER-THGrYXA8y1y-1" edge="1">
          <mxGeometry relative="1" as="geometry" />
        </mxCell>
        <mxCell id="SeLx3FER-THGrYXA8y1y-5" value="Usuário" style="image;aspect=fixed;perimeter=ellipsePerimeter;html=1;align=center;shadow=0;dashed=0;spacingTop=3;image=img/lib/active_directory/user.svg;fontSize=16;" parent="1" vertex="1">
          <mxGeometry x="530" y="281" width="18.5" height="50" as="geometry" />
        </mxCell>
        <mxCell id="SeLx3FER-THGrYXA8y1y-7" value="Interface" style="rounded=0;whiteSpace=wrap;html=1;horizontal=0;fontSize=16;" parent="1" vertex="1">
          <mxGeometry x="260" y="175" width="30" height="170" as="geometry" />
        </mxCell>
        <mxCell id="SeLx3FER-THGrYXA8y1y-22" style="edgeStyle=orthogonalEdgeStyle;rounded=0;orthogonalLoop=1;jettySize=auto;html=1;entryX=0.207;entryY=0.999;entryDx=0;entryDy=0;entryPerimeter=0;startArrow=classic;startFill=1;fontSize=16;" parent="1" source="SeLx3FER-THGrYXA8y1y-8" target="SeLx3FER-THGrYXA8y1y-11" edge="1">
          <mxGeometry relative="1" as="geometry" />
        </mxCell>
        <mxCell id="SeLx3FER-THGrYXA8y1y-8" value="" style="strokeWidth=2;html=1;shape=mxgraph.flowchart.database;whiteSpace=wrap;verticalAlign=top;labelPosition=center;verticalLabelPosition=bottom;align=center;fontSize=16;" parent="1" vertex="1">
          <mxGeometry x="51" y="380" width="60" height="60" as="geometry" />
        </mxCell>
        <mxCell id="SeLx3FER-THGrYXA8y1y-14" style="edgeStyle=orthogonalEdgeStyle;rounded=0;orthogonalLoop=1;jettySize=auto;html=1;exitX=0.5;exitY=0;exitDx=0;exitDy=0;exitPerimeter=0;entryX=0.704;entryY=0.999;entryDx=0;entryDy=0;entryPerimeter=0;startArrow=classic;startFill=1;fontSize=16;" parent="1" source="SeLx3FER-THGrYXA8y1y-10" target="SeLx3FER-THGrYXA8y1y-11" edge="1">
          <mxGeometry relative="1" as="geometry" />
        </mxCell>
        <mxCell id="SeLx3FER-THGrYXA8y1y-10" value="" style="strokeWidth=2;html=1;shape=mxgraph.flowchart.database;whiteSpace=wrap;verticalAlign=top;labelPosition=center;verticalLabelPosition=bottom;align=center;fontSize=16;" parent="1" vertex="1">
          <mxGeometry x="126" y="380" width="60" height="60" as="geometry" />
        </mxCell>
        <mxCell id="SeLx3FER-THGrYXA8y1y-17" style="edgeStyle=orthogonalEdgeStyle;rounded=0;orthogonalLoop=1;jettySize=auto;html=1;startArrow=classic;startFill=1;fontSize=16;" parent="1" source="SeLx3FER-THGrYXA8y1y-11" target="SeLx3FER-THGrYXA8y1y-7" edge="1">
          <mxGeometry relative="1" as="geometry" />
        </mxCell>
        <mxCell id="SeLx3FER-THGrYXA8y1y-11" value="" style="verticalLabelPosition=bottom;html=1;verticalAlign=top;align=center;strokeColor=none;fillColor=#00BEF2;shape=mxgraph.azure.startup_task;pointerEvents=1;fontSize=16;" parent="1" vertex="1">
          <mxGeometry x="50" y="180" width="150" height="160" as="geometry" />
        </mxCell>
        <mxCell id="SeLx3FER-THGrYXA8y1y-23" style="edgeStyle=orthogonalEdgeStyle;rounded=0;orthogonalLoop=1;jettySize=auto;html=1;entryX=0.5;entryY=0;entryDx=0;entryDy=0;startArrow=classic;startFill=1;entryPerimeter=0;fontSize=16;" parent="1" source="SeLx3FER-THGrYXA8y1y-24" target="SeLx3FER-THGrYXA8y1y-31" edge="1">
          <mxGeometry relative="1" as="geometry">
            <mxPoint x="294" y="625" as="targetPoint" />
          </mxGeometry>
        </mxCell>
        <mxCell id="SeLx3FER-THGrYXA8y1y-36" style="edgeStyle=orthogonalEdgeStyle;rounded=0;orthogonalLoop=1;jettySize=auto;html=1;entryX=0.5;entryY=0;entryDx=0;entryDy=0;entryPerimeter=0;fontSize=16;" parent="1" source="SeLx3FER-THGrYXA8y1y-24" target="SeLx3FER-THGrYXA8y1y-33" edge="1">
          <mxGeometry relative="1" as="geometry" />
        </mxCell>
        <mxCell id="SeLx3FER-THGrYXA8y1y-42" value="Leitura / Escrita nos arquivos" style="edgeLabel;html=1;align=center;verticalAlign=middle;resizable=0;points=[];fontSize=16;" parent="SeLx3FER-THGrYXA8y1y-36" vertex="1" connectable="0">
          <mxGeometry x="0.0445" relative="1" as="geometry">
            <mxPoint as="offset" />
          </mxGeometry>
        </mxCell>
        <mxCell id="SeLx3FER-THGrYXA8y1y-24" value="Aplicação" style="image;html=1;image=img/lib/clip_art/computers/Virtual_Application_128x128.png;fontSize=16;" parent="1" vertex="1">
          <mxGeometry x="360" y="585" width="80" height="80" as="geometry" />
        </mxCell>
        <mxCell id="SeLx3FER-THGrYXA8y1y-25" style="edgeStyle=orthogonalEdgeStyle;rounded=0;orthogonalLoop=1;jettySize=auto;html=1;entryX=1;entryY=0.5;entryDx=0;entryDy=0;startArrow=classic;startFill=1;fontSize=16;" parent="1" source="SeLx3FER-THGrYXA8y1y-26" target="SeLx3FER-THGrYXA8y1y-24" edge="1">
          <mxGeometry relative="1" as="geometry" />
        </mxCell>
        <mxCell id="SeLx3FER-THGrYXA8y1y-26" value="Usuário" style="image;aspect=fixed;perimeter=ellipsePerimeter;html=1;align=center;shadow=0;dashed=0;spacingTop=3;image=img/lib/active_directory/user.svg;fontSize=16;" parent="1" vertex="1">
          <mxGeometry x="530" y="545" width="18.5" height="50" as="geometry" />
        </mxCell>
        <mxCell id="SeLx3FER-THGrYXA8y1y-27" style="edgeStyle=orthogonalEdgeStyle;rounded=0;orthogonalLoop=1;jettySize=auto;html=1;entryX=1;entryY=0.5;entryDx=0;entryDy=0;startArrow=classic;startFill=1;fontSize=16;" parent="1" source="SeLx3FER-THGrYXA8y1y-28" target="SeLx3FER-THGrYXA8y1y-24" edge="1">
          <mxGeometry relative="1" as="geometry" />
        </mxCell>
        <mxCell id="SeLx3FER-THGrYXA8y1y-28" value="Usuário" style="image;aspect=fixed;perimeter=ellipsePerimeter;html=1;align=center;shadow=0;dashed=0;spacingTop=3;image=img/lib/active_directory/user.svg;fontSize=16;" parent="1" vertex="1">
          <mxGeometry x="530" y="646" width="18.5" height="50" as="geometry" />
        </mxCell>
        <mxCell id="SeLx3FER-THGrYXA8y1y-31" value="" style="strokeWidth=2;html=1;shape=mxgraph.flowchart.database;whiteSpace=wrap;verticalAlign=top;labelPosition=center;verticalLabelPosition=bottom;align=center;fontSize=16;" parent="1" vertex="1">
          <mxGeometry x="51" y="745" width="60" height="60" as="geometry" />
        </mxCell>
        <mxCell id="SeLx3FER-THGrYXA8y1y-33" value="" style="strokeWidth=2;html=1;shape=mxgraph.flowchart.database;whiteSpace=wrap;verticalAlign=top;labelPosition=center;verticalLabelPosition=bottom;align=center;fontSize=16;" parent="1" vertex="1">
          <mxGeometry x="126" y="745" width="60" height="60" as="geometry" />
        </mxCell>
        <mxCell id="SeLx3FER-THGrYXA8y1y-41" value="SGBD" style="rounded=0;whiteSpace=wrap;html=1;fontSize=16;" parent="1" vertex="1">
          <mxGeometry x="10" y="130" width="280" height="30" as="geometry" />
        </mxCell>
        <mxCell id="SeLx3FER-THGrYXA8y1y-45" value="Base de Dados 1" style="text;html=1;strokeColor=none;fillColor=none;align=center;verticalAlign=middle;whiteSpace=wrap;rounded=0;fontSize=14;" parent="1" vertex="1">
          <mxGeometry x="51" y="450" width="60" height="30" as="geometry" />
        </mxCell>
        <mxCell id="SeLx3FER-THGrYXA8y1y-46" value="Base de Dados 2" style="text;html=1;strokeColor=none;fillColor=none;align=center;verticalAlign=middle;whiteSpace=wrap;rounded=0;fontSize=14;" parent="1" vertex="1">
          <mxGeometry x="130" y="450" width="60" height="30" as="geometry" />
        </mxCell>
        <mxCell id="SeLx3FER-THGrYXA8y1y-47" value="Base de Dados 1" style="text;html=1;strokeColor=none;fillColor=none;align=center;verticalAlign=middle;whiteSpace=wrap;rounded=0;fontSize=14;" parent="1" vertex="1">
          <mxGeometry x="50" y="810" width="60" height="30" as="geometry" />
        </mxCell>
        <mxCell id="SeLx3FER-THGrYXA8y1y-48" value="Base de Dados 2" style="text;html=1;strokeColor=none;fillColor=none;align=center;verticalAlign=middle;whiteSpace=wrap;rounded=0;fontSize=14;" parent="1" vertex="1">
          <mxGeometry x="129" y="810" width="60" height="30" as="geometry" />
        </mxCell>
        <mxCell id="SeLx3FER-THGrYXA8y1y-49" value="" style="rounded=0;whiteSpace=wrap;html=1;fontSize=16;" parent="1" vertex="1">
          <mxGeometry x="50" y="1040" width="280" height="330" as="geometry" />
        </mxCell>
        <mxCell id="SeLx3FER-THGrYXA8y1y-50" style="edgeStyle=orthogonalEdgeStyle;rounded=0;orthogonalLoop=1;jettySize=auto;html=1;entryX=1;entryY=0.5;entryDx=0;entryDy=0;startArrow=classic;startFill=1;fontSize=16;" parent="1" source="SeLx3FER-THGrYXA8y1y-51" target="SeLx3FER-THGrYXA8y1y-56" edge="1">
          <mxGeometry relative="1" as="geometry" />
        </mxCell>
        <mxCell id="SeLx3FER-THGrYXA8y1y-51" value="Aplicação" style="image;html=1;image=img/lib/clip_art/computers/Virtual_Application_128x128.png;fontSize=16;" parent="1" vertex="1">
          <mxGeometry x="400" y="1100" width="80" height="80" as="geometry" />
        </mxCell>
        <mxCell id="SeLx3FER-THGrYXA8y1y-52" style="edgeStyle=orthogonalEdgeStyle;rounded=0;orthogonalLoop=1;jettySize=auto;html=1;entryX=1;entryY=0.5;entryDx=0;entryDy=0;startArrow=classic;startFill=1;fontSize=16;" parent="1" source="SeLx3FER-THGrYXA8y1y-53" target="SeLx3FER-THGrYXA8y1y-51" edge="1">
          <mxGeometry relative="1" as="geometry" />
        </mxCell>
        <mxCell id="SeLx3FER-THGrYXA8y1y-53" value="Usuário" style="image;aspect=fixed;perimeter=ellipsePerimeter;html=1;align=center;shadow=0;dashed=0;spacingTop=3;image=img/lib/active_directory/user.svg;fontSize=16;" parent="1" vertex="1">
          <mxGeometry x="570" y="1060" width="18.5" height="50" as="geometry" />
        </mxCell>
        <mxCell id="SeLx3FER-THGrYXA8y1y-54" style="edgeStyle=orthogonalEdgeStyle;rounded=0;orthogonalLoop=1;jettySize=auto;html=1;entryX=1;entryY=0.5;entryDx=0;entryDy=0;startArrow=classic;startFill=1;fontSize=16;" parent="1" source="SeLx3FER-THGrYXA8y1y-55" target="SeLx3FER-THGrYXA8y1y-51" edge="1">
          <mxGeometry relative="1" as="geometry" />
        </mxCell>
        <mxCell id="SeLx3FER-THGrYXA8y1y-55" value="Usuário" style="image;aspect=fixed;perimeter=ellipsePerimeter;html=1;align=center;shadow=0;dashed=0;spacingTop=3;image=img/lib/active_directory/user.svg;fontSize=16;" parent="1" vertex="1">
          <mxGeometry x="570" y="1161" width="18.5" height="50" as="geometry" />
        </mxCell>
        <mxCell id="SeLx3FER-THGrYXA8y1y-56" value="Interface" style="rounded=0;whiteSpace=wrap;html=1;horizontal=0;fontSize=16;" parent="1" vertex="1">
          <mxGeometry x="300" y="1055" width="30" height="170" as="geometry" />
        </mxCell>
        <mxCell id="SeLx3FER-THGrYXA8y1y-57" style="edgeStyle=orthogonalEdgeStyle;rounded=0;orthogonalLoop=1;jettySize=auto;html=1;entryX=0.207;entryY=0.999;entryDx=0;entryDy=0;entryPerimeter=0;startArrow=classic;startFill=1;fontSize=16;" parent="1" source="SeLx3FER-THGrYXA8y1y-58" target="SeLx3FER-THGrYXA8y1y-62" edge="1">
          <mxGeometry relative="1" as="geometry" />
        </mxCell>
        <mxCell id="SeLx3FER-THGrYXA8y1y-58" value="" style="strokeWidth=2;html=1;shape=mxgraph.flowchart.database;whiteSpace=wrap;verticalAlign=top;labelPosition=center;verticalLabelPosition=bottom;align=center;fontSize=16;" parent="1" vertex="1">
          <mxGeometry x="91" y="1260" width="60" height="60" as="geometry" />
        </mxCell>
        <mxCell id="SeLx3FER-THGrYXA8y1y-59" style="edgeStyle=orthogonalEdgeStyle;rounded=0;orthogonalLoop=1;jettySize=auto;html=1;exitX=0.5;exitY=0;exitDx=0;exitDy=0;exitPerimeter=0;entryX=0.704;entryY=0.999;entryDx=0;entryDy=0;entryPerimeter=0;startArrow=classic;startFill=1;fontSize=16;" parent="1" source="SeLx3FER-THGrYXA8y1y-60" target="SeLx3FER-THGrYXA8y1y-62" edge="1">
          <mxGeometry relative="1" as="geometry" />
        </mxCell>
        <mxCell id="SeLx3FER-THGrYXA8y1y-60" value="" style="strokeWidth=2;html=1;shape=mxgraph.flowchart.database;whiteSpace=wrap;verticalAlign=top;labelPosition=center;verticalLabelPosition=bottom;align=center;fontSize=16;" parent="1" vertex="1">
          <mxGeometry x="166" y="1260" width="60" height="60" as="geometry" />
        </mxCell>
        <mxCell id="SeLx3FER-THGrYXA8y1y-61" style="edgeStyle=orthogonalEdgeStyle;rounded=0;orthogonalLoop=1;jettySize=auto;html=1;startArrow=classic;startFill=1;fontSize=16;" parent="1" source="SeLx3FER-THGrYXA8y1y-62" target="SeLx3FER-THGrYXA8y1y-56" edge="1">
          <mxGeometry relative="1" as="geometry" />
        </mxCell>
        <mxCell id="SeLx3FER-THGrYXA8y1y-62" value="" style="verticalLabelPosition=bottom;html=1;verticalAlign=top;align=center;strokeColor=none;fillColor=#00BEF2;shape=mxgraph.azure.startup_task;pointerEvents=1;fontSize=16;" parent="1" vertex="1">
          <mxGeometry x="90" y="1060" width="150" height="160" as="geometry" />
        </mxCell>
        <mxCell id="SeLx3FER-THGrYXA8y1y-63" value="SGBD" style="rounded=0;whiteSpace=wrap;html=1;fontSize=16;" parent="1" vertex="1">
          <mxGeometry x="50" y="1010" width="280" height="30" as="geometry" />
        </mxCell>
        <mxCell id="SeLx3FER-THGrYXA8y1y-64" value="Base de Dados 1" style="text;html=1;strokeColor=none;fillColor=none;align=center;verticalAlign=middle;whiteSpace=wrap;rounded=0;fontSize=14;" parent="1" vertex="1">
          <mxGeometry x="91" y="1330" width="60" height="30" as="geometry" />
        </mxCell>
        <mxCell id="SeLx3FER-THGrYXA8y1y-65" value="Base de Dados 2" style="text;html=1;strokeColor=none;fillColor=none;align=center;verticalAlign=middle;whiteSpace=wrap;rounded=0;fontSize=14;" parent="1" vertex="1">
          <mxGeometry x="170" y="1330" width="60" height="30" as="geometry" />
        </mxCell>
        <mxCell id="SeLx3FER-THGrYXA8y1y-66" value="Administradores&lt;br&gt;(MySQL, Oracle...)" style="rounded=0;whiteSpace=wrap;html=1;fillColor=#fff2cc;strokeColor=#d6b656;fontSize=15;" parent="1" vertex="1">
          <mxGeometry x="126" y="950" width="120" height="60" as="geometry" />
        </mxCell>
        <mxCell id="SeLx3FER-THGrYXA8y1y-67" value="Programadores de aplicaçação&lt;br&gt;(C, C#, Java..)" style="rounded=0;whiteSpace=wrap;html=1;fillColor=#f8cecc;strokeColor=#b85450;fontSize=15;" parent="1" vertex="1">
          <mxGeometry x="370" y="1020" width="120" height="60" as="geometry" />
        </mxCell>
        <mxCell id="SeLx3FER-THGrYXA8y1y-68" value="Usuários Finais" style="rounded=0;whiteSpace=wrap;html=1;fillColor=#d5e8d4;strokeColor=#82b366;fontSize=15;" parent="1" vertex="1">
          <mxGeometry x="530" y="995" width="120" height="60" as="geometry" />
        </mxCell>
        <mxCell id="SeLx3FER-THGrYXA8y1y-69" value="Usuário" style="image;aspect=fixed;perimeter=ellipsePerimeter;html=1;align=center;shadow=0;dashed=0;spacingTop=3;image=img/lib/active_directory/user.svg;fontSize=16;" parent="1" vertex="1">
          <mxGeometry x="471.5" y="1290" width="18.5" height="50" as="geometry" />
        </mxCell>
        <mxCell id="SeLx3FER-THGrYXA8y1y-70" value="" style="verticalLabelPosition=bottom;verticalAlign=top;html=1;shape=mxgraph.basic.acute_triangle;dx=0.5;" parent="1" vertex="1">
          <mxGeometry x="200" y="1120" width="100" height="70" as="geometry" />
        </mxCell>
        <mxCell id="SeLx3FER-THGrYXA8y1y-71" value="" style="verticalLabelPosition=bottom;verticalAlign=top;html=1;shape=mxgraph.basic.acute_triangle;dx=0.5;" parent="1" vertex="1">
          <mxGeometry x="111" y="1470" width="289" height="180" as="geometry" />
        </mxCell>
        <mxCell id="SeLx3FER-THGrYXA8y1y-72" value="" style="endArrow=none;html=1;rounded=0;exitX=0.16;exitY=0.69;exitDx=0;exitDy=0;exitPerimeter=0;entryX=0.844;entryY=0.69;entryDx=0;entryDy=0;entryPerimeter=0;" parent="1" source="SeLx3FER-THGrYXA8y1y-71" target="SeLx3FER-THGrYXA8y1y-71" edge="1">
          <mxGeometry width="50" height="50" relative="1" as="geometry">
            <mxPoint x="220" y="1670" as="sourcePoint" />
            <mxPoint x="270" y="1620" as="targetPoint" />
          </mxGeometry>
        </mxCell>
        <mxCell id="SeLx3FER-THGrYXA8y1y-73" value="" style="endArrow=none;html=1;rounded=0;exitX=0.16;exitY=0.69;exitDx=0;exitDy=0;exitPerimeter=0;" parent="1" edge="1">
          <mxGeometry width="50" height="50" relative="1" as="geometry">
            <mxPoint x="200" y="1540" as="sourcePoint" />
            <mxPoint x="310" y="1540" as="targetPoint" />
          </mxGeometry>
        </mxCell>
        <mxCell id="SeLx3FER-THGrYXA8y1y-74" value="Nível Conceitual: Representação do mundo real" style="text;html=1;strokeColor=none;fillColor=none;align=left;verticalAlign=middle;whiteSpace=wrap;rounded=0;" parent="1" vertex="1">
          <mxGeometry x="300" y="1490" width="160" height="30" as="geometry" />
        </mxCell>
        <mxCell id="SeLx3FER-THGrYXA8y1y-75" value="Nível Lógico: SGDB&amp;nbsp;" style="text;html=1;strokeColor=none;fillColor=none;align=left;verticalAlign=middle;whiteSpace=wrap;rounded=0;" parent="1" vertex="1">
          <mxGeometry x="345" y="1550" width="160" height="30" as="geometry" />
        </mxCell>
        <mxCell id="SeLx3FER-THGrYXA8y1y-76" value="Nível Físico: SGDB&amp;nbsp;" style="text;html=1;strokeColor=none;fillColor=none;align=left;verticalAlign=middle;whiteSpace=wrap;rounded=0;" parent="1" vertex="1">
          <mxGeometry x="388.5" y="1600" width="160" height="30" as="geometry" />
        </mxCell>
        <mxCell id="SeLx3FER-THGrYXA8y1y-189" style="edgeStyle=none;shape=connector;rounded=0;orthogonalLoop=1;jettySize=auto;html=1;entryX=0.084;entryY=0.494;entryDx=0;entryDy=0;entryPerimeter=0;labelBackgroundColor=default;fontFamily=Helvetica;fontSize=14;fontColor=default;endArrow=none;endFill=0;" parent="1" source="SeLx3FER-THGrYXA8y1y-77" target="SeLx3FER-THGrYXA8y1y-188" edge="1">
          <mxGeometry relative="1" as="geometry" />
        </mxCell>
        <mxCell id="SeLx3FER-THGrYXA8y1y-192" style="edgeStyle=none;shape=connector;rounded=0;orthogonalLoop=1;jettySize=auto;html=1;exitX=1;exitY=0.5;exitDx=0;exitDy=0;entryX=0;entryY=0.5;entryDx=0;entryDy=0;labelBackgroundColor=default;fontFamily=Helvetica;fontSize=14;fontColor=default;endArrow=none;endFill=0;" parent="1" source="SeLx3FER-THGrYXA8y1y-77" target="SeLx3FER-THGrYXA8y1y-190" edge="1">
          <mxGeometry relative="1" as="geometry" />
        </mxCell>
        <mxCell id="SeLx3FER-THGrYXA8y1y-77" value="Funcionário" style="whiteSpace=wrap;html=1;align=center;fontSize=14;" parent="1" vertex="1">
          <mxGeometry x="921" y="1950" width="141" height="70" as="geometry" />
        </mxCell>
        <mxCell id="SeLx3FER-THGrYXA8y1y-196" style="edgeStyle=none;shape=connector;rounded=0;orthogonalLoop=1;jettySize=auto;html=1;entryX=0.5;entryY=0;entryDx=0;entryDy=0;labelBackgroundColor=default;fontFamily=Helvetica;fontSize=14;fontColor=default;endArrow=none;endFill=0;exitX=0.5;exitY=1;exitDx=0;exitDy=0;" parent="1" source="SeLx3FER-THGrYXA8y1y-78" target="SeLx3FER-THGrYXA8y1y-187" edge="1">
          <mxGeometry relative="1" as="geometry" />
        </mxCell>
        <mxCell id="SeLx3FER-THGrYXA8y1y-78" value="Departamento" style="whiteSpace=wrap;html=1;align=center;fontSize=14;" parent="1" vertex="1">
          <mxGeometry x="1172.5" y="1740" width="141" height="70" as="geometry" />
        </mxCell>
        <mxCell id="SeLx3FER-THGrYXA8y1y-79" value="Projeto" style="whiteSpace=wrap;html=1;align=center;fontSize=14;" parent="1" vertex="1">
          <mxGeometry x="1390" y="1950" width="141" height="70" as="geometry" />
        </mxCell>
        <mxCell id="SeLx3FER-THGrYXA8y1y-92" style="rounded=0;orthogonalLoop=1;jettySize=auto;html=1;entryX=0.5;entryY=1;entryDx=0;entryDy=0;endArrow=none;endFill=0;fontSize=14;" parent="1" source="SeLx3FER-THGrYXA8y1y-80" target="SeLx3FER-THGrYXA8y1y-77" edge="1">
          <mxGeometry relative="1" as="geometry">
            <mxPoint x="1056.5" y="2210" as="targetPoint" />
          </mxGeometry>
        </mxCell>
        <mxCell id="SeLx3FER-THGrYXA8y1y-80" value="Nome" style="ellipse;whiteSpace=wrap;html=1;align=center;fontSize=14;" parent="1" vertex="1">
          <mxGeometry x="851" y="2040" width="100" height="40" as="geometry" />
        </mxCell>
        <mxCell id="SeLx3FER-THGrYXA8y1y-93" style="edgeStyle=none;shape=connector;rounded=0;orthogonalLoop=1;jettySize=auto;html=1;exitX=0.5;exitY=0;exitDx=0;exitDy=0;entryX=0.5;entryY=1;entryDx=0;entryDy=0;labelBackgroundColor=default;fontFamily=Helvetica;fontSize=14;fontColor=default;endArrow=none;endFill=0;" parent="1" source="SeLx3FER-THGrYXA8y1y-82" target="SeLx3FER-THGrYXA8y1y-77" edge="1">
          <mxGeometry relative="1" as="geometry">
            <mxPoint x="1056.5" y="2210" as="targetPoint" />
          </mxGeometry>
        </mxCell>
        <mxCell id="SeLx3FER-THGrYXA8y1y-82" value="CPF" style="ellipse;whiteSpace=wrap;html=1;align=center;fontSize=14;" parent="1" vertex="1">
          <mxGeometry x="911" y="2095" width="100" height="40" as="geometry" />
        </mxCell>
        <mxCell id="SeLx3FER-THGrYXA8y1y-94" style="edgeStyle=none;shape=connector;rounded=0;orthogonalLoop=1;jettySize=auto;html=1;labelBackgroundColor=default;fontFamily=Helvetica;fontSize=14;fontColor=default;endArrow=none;endFill=0;entryX=0.5;entryY=0;entryDx=0;entryDy=0;" parent="1" target="SeLx3FER-THGrYXA8y1y-83" edge="1">
          <mxGeometry relative="1" as="geometry">
            <mxPoint x="981" y="2160" as="targetPoint" />
            <mxPoint x="992" y="2020" as="sourcePoint" />
          </mxGeometry>
        </mxCell>
        <mxCell id="SeLx3FER-THGrYXA8y1y-83" value="Endereço" style="ellipse;whiteSpace=wrap;html=1;align=center;fontSize=14;" parent="1" vertex="1">
          <mxGeometry x="1001" y="2070" width="100" height="40" as="geometry" />
        </mxCell>
        <mxCell id="SeLx3FER-THGrYXA8y1y-95" style="edgeStyle=none;shape=connector;rounded=0;orthogonalLoop=1;jettySize=auto;html=1;exitX=0;exitY=0;exitDx=0;exitDy=0;labelBackgroundColor=default;fontFamily=Helvetica;fontSize=14;fontColor=default;endArrow=none;endFill=0;entryX=0.5;entryY=1;entryDx=0;entryDy=0;" parent="1" source="SeLx3FER-THGrYXA8y1y-85" target="SeLx3FER-THGrYXA8y1y-77" edge="1">
          <mxGeometry relative="1" as="geometry">
            <mxPoint x="1027" y="2020" as="targetPoint" />
          </mxGeometry>
        </mxCell>
        <mxCell id="SeLx3FER-THGrYXA8y1y-85" value="Salário" style="ellipse;whiteSpace=wrap;html=1;align=center;fontSize=14;" parent="1" vertex="1">
          <mxGeometry x="1091" y="2030" width="100" height="40" as="geometry" />
        </mxCell>
        <mxCell id="SeLx3FER-THGrYXA8y1y-101" style="edgeStyle=none;shape=connector;rounded=0;orthogonalLoop=1;jettySize=auto;html=1;exitX=1;exitY=1;exitDx=0;exitDy=0;labelBackgroundColor=default;fontFamily=Helvetica;fontSize=14;fontColor=default;endArrow=none;endFill=0;" parent="1" source="SeLx3FER-THGrYXA8y1y-86" edge="1">
          <mxGeometry relative="1" as="geometry">
            <mxPoint x="1241" y="1740" as="targetPoint" />
          </mxGeometry>
        </mxCell>
        <mxCell id="SeLx3FER-THGrYXA8y1y-86" value="Nome" style="ellipse;whiteSpace=wrap;html=1;align=center;fontSize=14;" parent="1" vertex="1">
          <mxGeometry x="1081" y="1690" width="100" height="40" as="geometry" />
        </mxCell>
        <mxCell id="SeLx3FER-THGrYXA8y1y-100" style="edgeStyle=none;shape=connector;rounded=0;orthogonalLoop=1;jettySize=auto;html=1;exitX=0.5;exitY=1;exitDx=0;exitDy=0;labelBackgroundColor=default;fontFamily=Helvetica;fontSize=14;fontColor=default;endArrow=none;endFill=0;" parent="1" source="SeLx3FER-THGrYXA8y1y-87" edge="1">
          <mxGeometry relative="1" as="geometry">
            <mxPoint x="1241" y="1740" as="targetPoint" />
          </mxGeometry>
        </mxCell>
        <mxCell id="SeLx3FER-THGrYXA8y1y-87" value="Número" style="ellipse;whiteSpace=wrap;html=1;align=center;fontSize=14;" parent="1" vertex="1">
          <mxGeometry x="1191" y="1670" width="100" height="40" as="geometry" />
        </mxCell>
        <mxCell id="SeLx3FER-THGrYXA8y1y-99" style="edgeStyle=none;shape=connector;rounded=0;orthogonalLoop=1;jettySize=auto;html=1;exitX=0;exitY=1;exitDx=0;exitDy=0;entryX=0.5;entryY=0;entryDx=0;entryDy=0;labelBackgroundColor=default;fontFamily=Helvetica;fontSize=14;fontColor=default;endArrow=none;endFill=0;" parent="1" source="SeLx3FER-THGrYXA8y1y-88" target="SeLx3FER-THGrYXA8y1y-78" edge="1">
          <mxGeometry relative="1" as="geometry" />
        </mxCell>
        <mxCell id="SeLx3FER-THGrYXA8y1y-88" value="Local" style="ellipse;whiteSpace=wrap;html=1;align=center;fontSize=14;" parent="1" vertex="1">
          <mxGeometry x="1301" y="1690" width="100" height="40" as="geometry" />
        </mxCell>
        <mxCell id="SeLx3FER-THGrYXA8y1y-96" style="edgeStyle=none;shape=connector;rounded=0;orthogonalLoop=1;jettySize=auto;html=1;exitX=1;exitY=0;exitDx=0;exitDy=0;labelBackgroundColor=default;fontFamily=Helvetica;fontSize=14;fontColor=default;endArrow=none;endFill=0;entryX=0.25;entryY=1;entryDx=0;entryDy=0;" parent="1" source="SeLx3FER-THGrYXA8y1y-89" target="SeLx3FER-THGrYXA8y1y-79" edge="1">
          <mxGeometry relative="1" as="geometry">
            <mxPoint x="1461" y="2120" as="targetPoint" />
          </mxGeometry>
        </mxCell>
        <mxCell id="SeLx3FER-THGrYXA8y1y-89" value="Nome" style="ellipse;whiteSpace=wrap;html=1;align=center;fontSize=14;" parent="1" vertex="1">
          <mxGeometry x="1301" y="2050" width="100" height="40" as="geometry" />
        </mxCell>
        <mxCell id="SeLx3FER-THGrYXA8y1y-97" style="edgeStyle=none;shape=connector;rounded=0;orthogonalLoop=1;jettySize=auto;html=1;exitX=0.5;exitY=0;exitDx=0;exitDy=0;labelBackgroundColor=default;fontFamily=Helvetica;fontSize=14;fontColor=default;endArrow=none;endFill=0;entryX=0.5;entryY=1;entryDx=0;entryDy=0;" parent="1" source="SeLx3FER-THGrYXA8y1y-90" target="SeLx3FER-THGrYXA8y1y-79" edge="1">
          <mxGeometry relative="1" as="geometry">
            <mxPoint x="1461" y="2120" as="targetPoint" />
          </mxGeometry>
        </mxCell>
        <mxCell id="SeLx3FER-THGrYXA8y1y-90" value="Número" style="ellipse;whiteSpace=wrap;html=1;align=center;fontSize=14;" parent="1" vertex="1">
          <mxGeometry x="1410.5" y="2070" width="100" height="40" as="geometry" />
        </mxCell>
        <mxCell id="SeLx3FER-THGrYXA8y1y-98" style="edgeStyle=none;shape=connector;rounded=0;orthogonalLoop=1;jettySize=auto;html=1;labelBackgroundColor=default;fontFamily=Helvetica;fontSize=14;fontColor=default;endArrow=none;endFill=0;exitX=0;exitY=0;exitDx=0;exitDy=0;entryX=0.75;entryY=1;entryDx=0;entryDy=0;" parent="1" source="SeLx3FER-THGrYXA8y1y-91" target="SeLx3FER-THGrYXA8y1y-79" edge="1">
          <mxGeometry relative="1" as="geometry">
            <mxPoint x="1461" y="2120" as="targetPoint" />
            <mxPoint x="1526" y="2104" as="sourcePoint" />
          </mxGeometry>
        </mxCell>
        <mxCell id="SeLx3FER-THGrYXA8y1y-91" value="Orçamento" style="ellipse;whiteSpace=wrap;html=1;align=center;fontSize=14;" parent="1" vertex="1">
          <mxGeometry x="1521" y="2050" width="100" height="40" as="geometry" />
        </mxCell>
        <mxCell id="SeLx3FER-THGrYXA8y1y-128" value="Funcionário" style="shape=table;startSize=30;container=1;collapsible=0;childLayout=tableLayout;fontFamily=Helvetica;fontSize=11;fontColor=default;fontStyle=1" parent="1" vertex="1">
          <mxGeometry x="1130" y="720" width="290" height="190" as="geometry" />
        </mxCell>
        <mxCell id="SeLx3FER-THGrYXA8y1y-129" value="" style="shape=tableRow;horizontal=0;startSize=0;swimlaneHead=0;swimlaneBody=0;strokeColor=inherit;top=0;left=0;bottom=0;right=0;collapsible=0;dropTarget=0;fillColor=none;points=[[0,0.5],[1,0.5]];portConstraint=eastwest;fontFamily=Helvetica;fontSize=11;fontColor=default;" parent="SeLx3FER-THGrYXA8y1y-128" vertex="1">
          <mxGeometry y="30" width="290" height="40" as="geometry" />
        </mxCell>
        <mxCell id="SeLx3FER-THGrYXA8y1y-130" value="Nome" style="shape=partialRectangle;html=1;whiteSpace=wrap;connectable=0;strokeColor=inherit;overflow=hidden;fillColor=none;top=0;left=0;bottom=0;right=0;pointerEvents=1;fontFamily=Helvetica;fontSize=11;fontColor=default;align=center;fontStyle=1" parent="SeLx3FER-THGrYXA8y1y-129" vertex="1">
          <mxGeometry width="73" height="40" as="geometry">
            <mxRectangle width="73" height="40" as="alternateBounds" />
          </mxGeometry>
        </mxCell>
        <mxCell id="SeLx3FER-THGrYXA8y1y-131" value="CPF&lt;br&gt;" style="shape=partialRectangle;html=1;whiteSpace=wrap;connectable=0;strokeColor=inherit;overflow=hidden;fillColor=none;top=0;left=0;bottom=0;right=0;pointerEvents=1;fontFamily=Helvetica;fontSize=11;fontColor=default;fontStyle=1" parent="SeLx3FER-THGrYXA8y1y-129" vertex="1">
          <mxGeometry x="73" width="72" height="40" as="geometry">
            <mxRectangle width="72" height="40" as="alternateBounds" />
          </mxGeometry>
        </mxCell>
        <mxCell id="SeLx3FER-THGrYXA8y1y-132" value="Endereço" style="shape=partialRectangle;html=1;whiteSpace=wrap;connectable=0;strokeColor=inherit;overflow=hidden;fillColor=none;top=0;left=0;bottom=0;right=0;pointerEvents=1;fontFamily=Helvetica;fontSize=11;fontColor=default;fontStyle=1" parent="SeLx3FER-THGrYXA8y1y-129" vertex="1">
          <mxGeometry x="145" width="73" height="40" as="geometry">
            <mxRectangle width="73" height="40" as="alternateBounds" />
          </mxGeometry>
        </mxCell>
        <mxCell id="SeLx3FER-THGrYXA8y1y-133" value="Salário" style="shape=partialRectangle;html=1;whiteSpace=wrap;connectable=0;strokeColor=inherit;overflow=hidden;fillColor=none;top=0;left=0;bottom=0;right=0;pointerEvents=1;fontFamily=Helvetica;fontSize=11;fontColor=default;fontStyle=1" parent="SeLx3FER-THGrYXA8y1y-129" vertex="1">
          <mxGeometry x="218" width="72" height="40" as="geometry">
            <mxRectangle width="72" height="40" as="alternateBounds" />
          </mxGeometry>
        </mxCell>
        <mxCell id="SeLx3FER-THGrYXA8y1y-135" value="" style="shape=tableRow;horizontal=0;startSize=0;swimlaneHead=0;swimlaneBody=0;strokeColor=inherit;top=0;left=0;bottom=0;right=0;collapsible=0;dropTarget=0;fillColor=none;points=[[0,0.5],[1,0.5]];portConstraint=eastwest;fontFamily=Helvetica;fontSize=11;fontColor=default;" parent="SeLx3FER-THGrYXA8y1y-128" vertex="1">
          <mxGeometry y="70" width="290" height="40" as="geometry" />
        </mxCell>
        <mxCell id="SeLx3FER-THGrYXA8y1y-136" value="José da Silva" style="shape=partialRectangle;html=1;whiteSpace=wrap;connectable=0;strokeColor=inherit;overflow=hidden;fillColor=none;top=0;left=0;bottom=0;right=0;pointerEvents=1;fontFamily=Helvetica;fontSize=11;fontColor=default;" parent="SeLx3FER-THGrYXA8y1y-135" vertex="1">
          <mxGeometry width="73" height="40" as="geometry">
            <mxRectangle width="73" height="40" as="alternateBounds" />
          </mxGeometry>
        </mxCell>
        <mxCell id="SeLx3FER-THGrYXA8y1y-137" value="123.436.432-32" style="shape=partialRectangle;html=1;whiteSpace=wrap;connectable=0;strokeColor=inherit;overflow=hidden;fillColor=none;top=0;left=0;bottom=0;right=0;pointerEvents=1;fontFamily=Helvetica;fontSize=11;fontColor=default;" parent="SeLx3FER-THGrYXA8y1y-135" vertex="1">
          <mxGeometry x="73" width="72" height="40" as="geometry">
            <mxRectangle width="72" height="40" as="alternateBounds" />
          </mxGeometry>
        </mxCell>
        <mxCell id="SeLx3FER-THGrYXA8y1y-138" value="Rua dos Alfeneiros, 4" style="shape=partialRectangle;html=1;whiteSpace=wrap;connectable=0;strokeColor=inherit;overflow=hidden;fillColor=none;top=0;left=0;bottom=0;right=0;pointerEvents=1;fontFamily=Helvetica;fontSize=11;fontColor=default;" parent="SeLx3FER-THGrYXA8y1y-135" vertex="1">
          <mxGeometry x="145" width="73" height="40" as="geometry">
            <mxRectangle width="73" height="40" as="alternateBounds" />
          </mxGeometry>
        </mxCell>
        <mxCell id="SeLx3FER-THGrYXA8y1y-139" value="R$ 2.000,00" style="shape=partialRectangle;html=1;whiteSpace=wrap;connectable=0;strokeColor=inherit;overflow=hidden;fillColor=none;top=0;left=0;bottom=0;right=0;pointerEvents=1;fontFamily=Helvetica;fontSize=11;fontColor=default;" parent="SeLx3FER-THGrYXA8y1y-135" vertex="1">
          <mxGeometry x="218" width="72" height="40" as="geometry">
            <mxRectangle width="72" height="40" as="alternateBounds" />
          </mxGeometry>
        </mxCell>
        <mxCell id="SeLx3FER-THGrYXA8y1y-141" value="" style="shape=tableRow;horizontal=0;startSize=0;swimlaneHead=0;swimlaneBody=0;strokeColor=inherit;top=0;left=0;bottom=0;right=0;collapsible=0;dropTarget=0;fillColor=none;points=[[0,0.5],[1,0.5]];portConstraint=eastwest;fontFamily=Helvetica;fontSize=11;fontColor=default;" parent="SeLx3FER-THGrYXA8y1y-128" vertex="1">
          <mxGeometry y="110" width="290" height="40" as="geometry" />
        </mxCell>
        <mxCell id="SeLx3FER-THGrYXA8y1y-142" value="Fernanda Augusta" style="shape=partialRectangle;html=1;whiteSpace=wrap;connectable=0;strokeColor=inherit;overflow=hidden;fillColor=none;top=0;left=0;bottom=0;right=0;pointerEvents=1;fontFamily=Helvetica;fontSize=11;fontColor=default;" parent="SeLx3FER-THGrYXA8y1y-141" vertex="1">
          <mxGeometry width="73" height="40" as="geometry">
            <mxRectangle width="73" height="40" as="alternateBounds" />
          </mxGeometry>
        </mxCell>
        <mxCell id="SeLx3FER-THGrYXA8y1y-143" value="454.765.650-32" style="shape=partialRectangle;html=1;whiteSpace=wrap;connectable=0;strokeColor=inherit;overflow=hidden;fillColor=none;top=0;left=0;bottom=0;right=0;pointerEvents=1;fontFamily=Helvetica;fontSize=11;fontColor=default;" parent="SeLx3FER-THGrYXA8y1y-141" vertex="1">
          <mxGeometry x="73" width="72" height="40" as="geometry">
            <mxRectangle width="72" height="40" as="alternateBounds" />
          </mxGeometry>
        </mxCell>
        <mxCell id="SeLx3FER-THGrYXA8y1y-144" value="Av. Osório, 433" style="shape=partialRectangle;html=1;whiteSpace=wrap;connectable=0;strokeColor=inherit;overflow=hidden;fillColor=none;top=0;left=0;bottom=0;right=0;pointerEvents=1;fontFamily=Helvetica;fontSize=11;fontColor=default;" parent="SeLx3FER-THGrYXA8y1y-141" vertex="1">
          <mxGeometry x="145" width="73" height="40" as="geometry">
            <mxRectangle width="73" height="40" as="alternateBounds" />
          </mxGeometry>
        </mxCell>
        <mxCell id="SeLx3FER-THGrYXA8y1y-145" value="R$ 3.000,00" style="shape=partialRectangle;html=1;whiteSpace=wrap;connectable=0;strokeColor=inherit;overflow=hidden;fillColor=none;top=0;left=0;bottom=0;right=0;pointerEvents=1;fontFamily=Helvetica;fontSize=11;fontColor=default;" parent="SeLx3FER-THGrYXA8y1y-141" vertex="1">
          <mxGeometry x="218" width="72" height="40" as="geometry">
            <mxRectangle width="72" height="40" as="alternateBounds" />
          </mxGeometry>
        </mxCell>
        <mxCell id="SeLx3FER-THGrYXA8y1y-147" value="" style="shape=tableRow;horizontal=0;startSize=0;swimlaneHead=0;swimlaneBody=0;strokeColor=inherit;top=0;left=0;bottom=0;right=0;collapsible=0;dropTarget=0;fillColor=none;points=[[0,0.5],[1,0.5]];portConstraint=eastwest;fontFamily=Helvetica;fontSize=11;fontColor=default;" parent="SeLx3FER-THGrYXA8y1y-128" vertex="1">
          <mxGeometry y="150" width="290" height="40" as="geometry" />
        </mxCell>
        <mxCell id="SeLx3FER-THGrYXA8y1y-148" value="" style="shape=partialRectangle;html=1;whiteSpace=wrap;connectable=0;strokeColor=inherit;overflow=hidden;fillColor=none;top=0;left=0;bottom=0;right=0;pointerEvents=1;fontFamily=Helvetica;fontSize=11;fontColor=default;" parent="SeLx3FER-THGrYXA8y1y-147" vertex="1">
          <mxGeometry width="73" height="40" as="geometry">
            <mxRectangle width="73" height="40" as="alternateBounds" />
          </mxGeometry>
        </mxCell>
        <mxCell id="SeLx3FER-THGrYXA8y1y-149" value="" style="shape=partialRectangle;html=1;whiteSpace=wrap;connectable=0;strokeColor=inherit;overflow=hidden;fillColor=none;top=0;left=0;bottom=0;right=0;pointerEvents=1;fontFamily=Helvetica;fontSize=11;fontColor=default;" parent="SeLx3FER-THGrYXA8y1y-147" vertex="1">
          <mxGeometry x="73" width="72" height="40" as="geometry">
            <mxRectangle width="72" height="40" as="alternateBounds" />
          </mxGeometry>
        </mxCell>
        <mxCell id="SeLx3FER-THGrYXA8y1y-150" value="" style="shape=partialRectangle;html=1;whiteSpace=wrap;connectable=0;strokeColor=inherit;overflow=hidden;fillColor=none;top=0;left=0;bottom=0;right=0;pointerEvents=1;fontFamily=Helvetica;fontSize=11;fontColor=default;" parent="SeLx3FER-THGrYXA8y1y-147" vertex="1">
          <mxGeometry x="145" width="73" height="40" as="geometry">
            <mxRectangle width="73" height="40" as="alternateBounds" />
          </mxGeometry>
        </mxCell>
        <mxCell id="SeLx3FER-THGrYXA8y1y-151" value="" style="shape=partialRectangle;html=1;whiteSpace=wrap;connectable=0;strokeColor=inherit;overflow=hidden;fillColor=none;top=0;left=0;bottom=0;right=0;pointerEvents=1;fontFamily=Helvetica;fontSize=11;fontColor=default;" parent="SeLx3FER-THGrYXA8y1y-147" vertex="1">
          <mxGeometry x="218" width="72" height="40" as="geometry">
            <mxRectangle width="72" height="40" as="alternateBounds" />
          </mxGeometry>
        </mxCell>
        <mxCell id="SeLx3FER-THGrYXA8y1y-153" value="Projeto" style="shape=table;startSize=30;container=1;collapsible=0;childLayout=tableLayout;fontFamily=Helvetica;fontSize=11;fontColor=default;fontStyle=1" parent="1" vertex="1">
          <mxGeometry x="1280" y="1260" width="270" height="190" as="geometry" />
        </mxCell>
        <mxCell id="SeLx3FER-THGrYXA8y1y-154" value="" style="shape=tableRow;horizontal=0;startSize=0;swimlaneHead=0;swimlaneBody=0;strokeColor=inherit;top=0;left=0;bottom=0;right=0;collapsible=0;dropTarget=0;fillColor=none;points=[[0,0.5],[1,0.5]];portConstraint=eastwest;fontFamily=Helvetica;fontSize=11;fontColor=default;" parent="SeLx3FER-THGrYXA8y1y-153" vertex="1">
          <mxGeometry y="30" width="270" height="40" as="geometry" />
        </mxCell>
        <mxCell id="SeLx3FER-THGrYXA8y1y-155" value="&lt;b&gt;Número&lt;/b&gt;" style="shape=partialRectangle;html=1;whiteSpace=wrap;connectable=0;strokeColor=inherit;overflow=hidden;fillColor=none;top=0;left=0;bottom=0;right=0;pointerEvents=1;fontFamily=Helvetica;fontSize=11;fontColor=default;" parent="SeLx3FER-THGrYXA8y1y-154" vertex="1">
          <mxGeometry width="90" height="40" as="geometry">
            <mxRectangle width="90" height="40" as="alternateBounds" />
          </mxGeometry>
        </mxCell>
        <mxCell id="SeLx3FER-THGrYXA8y1y-156" value="&lt;b&gt;Nome&lt;/b&gt;" style="shape=partialRectangle;html=1;whiteSpace=wrap;connectable=0;strokeColor=inherit;overflow=hidden;fillColor=none;top=0;left=0;bottom=0;right=0;pointerEvents=1;fontFamily=Helvetica;fontSize=11;fontColor=default;" parent="SeLx3FER-THGrYXA8y1y-154" vertex="1">
          <mxGeometry x="90" width="90" height="40" as="geometry">
            <mxRectangle width="90" height="40" as="alternateBounds" />
          </mxGeometry>
        </mxCell>
        <mxCell id="SeLx3FER-THGrYXA8y1y-157" value="&lt;b&gt;Orçamento&lt;/b&gt;" style="shape=partialRectangle;html=1;whiteSpace=wrap;connectable=0;strokeColor=inherit;overflow=hidden;fillColor=none;top=0;left=0;bottom=0;right=0;pointerEvents=1;fontFamily=Helvetica;fontSize=11;fontColor=default;" parent="SeLx3FER-THGrYXA8y1y-154" vertex="1">
          <mxGeometry x="180" width="90" height="40" as="geometry">
            <mxRectangle width="90" height="40" as="alternateBounds" />
          </mxGeometry>
        </mxCell>
        <mxCell id="SeLx3FER-THGrYXA8y1y-158" value="" style="shape=tableRow;horizontal=0;startSize=0;swimlaneHead=0;swimlaneBody=0;strokeColor=inherit;top=0;left=0;bottom=0;right=0;collapsible=0;dropTarget=0;fillColor=none;points=[[0,0.5],[1,0.5]];portConstraint=eastwest;fontFamily=Helvetica;fontSize=11;fontColor=default;" parent="SeLx3FER-THGrYXA8y1y-153" vertex="1">
          <mxGeometry y="70" width="270" height="40" as="geometry" />
        </mxCell>
        <mxCell id="SeLx3FER-THGrYXA8y1y-159" value="1" style="shape=partialRectangle;html=1;whiteSpace=wrap;connectable=0;strokeColor=inherit;overflow=hidden;fillColor=none;top=0;left=0;bottom=0;right=0;pointerEvents=1;fontFamily=Helvetica;fontSize=11;fontColor=default;" parent="SeLx3FER-THGrYXA8y1y-158" vertex="1">
          <mxGeometry width="90" height="40" as="geometry">
            <mxRectangle width="90" height="40" as="alternateBounds" />
          </mxGeometry>
        </mxCell>
        <mxCell id="SeLx3FER-THGrYXA8y1y-160" value="Expansão de sede" style="shape=partialRectangle;html=1;whiteSpace=wrap;connectable=0;strokeColor=inherit;overflow=hidden;fillColor=none;top=0;left=0;bottom=0;right=0;pointerEvents=1;fontFamily=Helvetica;fontSize=11;fontColor=default;" parent="SeLx3FER-THGrYXA8y1y-158" vertex="1">
          <mxGeometry x="90" width="90" height="40" as="geometry">
            <mxRectangle width="90" height="40" as="alternateBounds" />
          </mxGeometry>
        </mxCell>
        <mxCell id="SeLx3FER-THGrYXA8y1y-161" value="R$ 20.000,00" style="shape=partialRectangle;html=1;whiteSpace=wrap;connectable=0;strokeColor=inherit;overflow=hidden;fillColor=none;top=0;left=0;bottom=0;right=0;pointerEvents=1;fontFamily=Helvetica;fontSize=11;fontColor=default;" parent="SeLx3FER-THGrYXA8y1y-158" vertex="1">
          <mxGeometry x="180" width="90" height="40" as="geometry">
            <mxRectangle width="90" height="40" as="alternateBounds" />
          </mxGeometry>
        </mxCell>
        <mxCell id="SeLx3FER-THGrYXA8y1y-162" value="" style="shape=tableRow;horizontal=0;startSize=0;swimlaneHead=0;swimlaneBody=0;strokeColor=inherit;top=0;left=0;bottom=0;right=0;collapsible=0;dropTarget=0;fillColor=none;points=[[0,0.5],[1,0.5]];portConstraint=eastwest;fontFamily=Helvetica;fontSize=11;fontColor=default;" parent="SeLx3FER-THGrYXA8y1y-153" vertex="1">
          <mxGeometry y="110" width="270" height="40" as="geometry" />
        </mxCell>
        <mxCell id="SeLx3FER-THGrYXA8y1y-163" value="2" style="shape=partialRectangle;html=1;whiteSpace=wrap;connectable=0;strokeColor=inherit;overflow=hidden;fillColor=none;top=0;left=0;bottom=0;right=0;pointerEvents=1;fontFamily=Helvetica;fontSize=11;fontColor=default;" parent="SeLx3FER-THGrYXA8y1y-162" vertex="1">
          <mxGeometry width="90" height="40" as="geometry">
            <mxRectangle width="90" height="40" as="alternateBounds" />
          </mxGeometry>
        </mxCell>
        <mxCell id="SeLx3FER-THGrYXA8y1y-164" value="Novo produto" style="shape=partialRectangle;html=1;whiteSpace=wrap;connectable=0;strokeColor=inherit;overflow=hidden;fillColor=none;top=0;left=0;bottom=0;right=0;pointerEvents=1;fontFamily=Helvetica;fontSize=11;fontColor=default;" parent="SeLx3FER-THGrYXA8y1y-162" vertex="1">
          <mxGeometry x="90" width="90" height="40" as="geometry">
            <mxRectangle width="90" height="40" as="alternateBounds" />
          </mxGeometry>
        </mxCell>
        <mxCell id="SeLx3FER-THGrYXA8y1y-165" value="R$ 15.000,00" style="shape=partialRectangle;html=1;whiteSpace=wrap;connectable=0;strokeColor=inherit;overflow=hidden;fillColor=none;top=0;left=0;bottom=0;right=0;pointerEvents=1;fontFamily=Helvetica;fontSize=11;fontColor=default;" parent="SeLx3FER-THGrYXA8y1y-162" vertex="1">
          <mxGeometry x="180" width="90" height="40" as="geometry">
            <mxRectangle width="90" height="40" as="alternateBounds" />
          </mxGeometry>
        </mxCell>
        <mxCell id="SeLx3FER-THGrYXA8y1y-166" value="" style="shape=tableRow;horizontal=0;startSize=0;swimlaneHead=0;swimlaneBody=0;strokeColor=inherit;top=0;left=0;bottom=0;right=0;collapsible=0;dropTarget=0;fillColor=none;points=[[0,0.5],[1,0.5]];portConstraint=eastwest;fontFamily=Helvetica;fontSize=11;fontColor=default;" parent="SeLx3FER-THGrYXA8y1y-153" vertex="1">
          <mxGeometry y="150" width="270" height="40" as="geometry" />
        </mxCell>
        <mxCell id="SeLx3FER-THGrYXA8y1y-167" value="" style="shape=partialRectangle;html=1;whiteSpace=wrap;connectable=0;strokeColor=inherit;overflow=hidden;fillColor=none;top=0;left=0;bottom=0;right=0;pointerEvents=1;fontFamily=Helvetica;fontSize=11;fontColor=default;" parent="SeLx3FER-THGrYXA8y1y-166" vertex="1">
          <mxGeometry width="90" height="40" as="geometry">
            <mxRectangle width="90" height="40" as="alternateBounds" />
          </mxGeometry>
        </mxCell>
        <mxCell id="SeLx3FER-THGrYXA8y1y-168" value="" style="shape=partialRectangle;html=1;whiteSpace=wrap;connectable=0;strokeColor=inherit;overflow=hidden;fillColor=none;top=0;left=0;bottom=0;right=0;pointerEvents=1;fontFamily=Helvetica;fontSize=11;fontColor=default;" parent="SeLx3FER-THGrYXA8y1y-166" vertex="1">
          <mxGeometry x="90" width="90" height="40" as="geometry">
            <mxRectangle width="90" height="40" as="alternateBounds" />
          </mxGeometry>
        </mxCell>
        <mxCell id="SeLx3FER-THGrYXA8y1y-169" value="" style="shape=partialRectangle;html=1;whiteSpace=wrap;connectable=0;strokeColor=inherit;overflow=hidden;fillColor=none;top=0;left=0;bottom=0;right=0;pointerEvents=1;fontFamily=Helvetica;fontSize=11;fontColor=default;" parent="SeLx3FER-THGrYXA8y1y-166" vertex="1">
          <mxGeometry x="180" width="90" height="40" as="geometry">
            <mxRectangle width="90" height="40" as="alternateBounds" />
          </mxGeometry>
        </mxCell>
        <mxCell id="SeLx3FER-THGrYXA8y1y-170" value="Departamento" style="shape=table;startSize=30;container=1;collapsible=0;childLayout=tableLayout;fontFamily=Helvetica;fontSize=11;fontColor=default;fontStyle=1" parent="1" vertex="1">
          <mxGeometry x="940" y="1270" width="270" height="190" as="geometry" />
        </mxCell>
        <mxCell id="SeLx3FER-THGrYXA8y1y-171" value="" style="shape=tableRow;horizontal=0;startSize=0;swimlaneHead=0;swimlaneBody=0;strokeColor=inherit;top=0;left=0;bottom=0;right=0;collapsible=0;dropTarget=0;fillColor=none;points=[[0,0.5],[1,0.5]];portConstraint=eastwest;fontFamily=Helvetica;fontSize=11;fontColor=default;" parent="SeLx3FER-THGrYXA8y1y-170" vertex="1">
          <mxGeometry y="30" width="270" height="40" as="geometry" />
        </mxCell>
        <mxCell id="SeLx3FER-THGrYXA8y1y-172" value="&lt;b&gt;Número&lt;/b&gt;" style="shape=partialRectangle;html=1;whiteSpace=wrap;connectable=0;strokeColor=inherit;overflow=hidden;fillColor=none;top=0;left=0;bottom=0;right=0;pointerEvents=1;fontFamily=Helvetica;fontSize=11;fontColor=default;" parent="SeLx3FER-THGrYXA8y1y-171" vertex="1">
          <mxGeometry width="90" height="40" as="geometry">
            <mxRectangle width="90" height="40" as="alternateBounds" />
          </mxGeometry>
        </mxCell>
        <mxCell id="SeLx3FER-THGrYXA8y1y-173" value="&lt;b&gt;Nome&lt;/b&gt;" style="shape=partialRectangle;html=1;whiteSpace=wrap;connectable=0;strokeColor=inherit;overflow=hidden;fillColor=none;top=0;left=0;bottom=0;right=0;pointerEvents=1;fontFamily=Helvetica;fontSize=11;fontColor=default;" parent="SeLx3FER-THGrYXA8y1y-171" vertex="1">
          <mxGeometry x="90" width="90" height="40" as="geometry">
            <mxRectangle width="90" height="40" as="alternateBounds" />
          </mxGeometry>
        </mxCell>
        <mxCell id="SeLx3FER-THGrYXA8y1y-174" value="&lt;b&gt;Local&lt;/b&gt;" style="shape=partialRectangle;html=1;whiteSpace=wrap;connectable=0;strokeColor=inherit;overflow=hidden;fillColor=none;top=0;left=0;bottom=0;right=0;pointerEvents=1;fontFamily=Helvetica;fontSize=11;fontColor=default;" parent="SeLx3FER-THGrYXA8y1y-171" vertex="1">
          <mxGeometry x="180" width="90" height="40" as="geometry">
            <mxRectangle width="90" height="40" as="alternateBounds" />
          </mxGeometry>
        </mxCell>
        <mxCell id="SeLx3FER-THGrYXA8y1y-175" value="" style="shape=tableRow;horizontal=0;startSize=0;swimlaneHead=0;swimlaneBody=0;strokeColor=inherit;top=0;left=0;bottom=0;right=0;collapsible=0;dropTarget=0;fillColor=none;points=[[0,0.5],[1,0.5]];portConstraint=eastwest;fontFamily=Helvetica;fontSize=11;fontColor=default;" parent="SeLx3FER-THGrYXA8y1y-170" vertex="1">
          <mxGeometry y="70" width="270" height="40" as="geometry" />
        </mxCell>
        <mxCell id="SeLx3FER-THGrYXA8y1y-176" value="1" style="shape=partialRectangle;html=1;whiteSpace=wrap;connectable=0;strokeColor=inherit;overflow=hidden;fillColor=none;top=0;left=0;bottom=0;right=0;pointerEvents=1;fontFamily=Helvetica;fontSize=11;fontColor=default;" parent="SeLx3FER-THGrYXA8y1y-175" vertex="1">
          <mxGeometry width="90" height="40" as="geometry">
            <mxRectangle width="90" height="40" as="alternateBounds" />
          </mxGeometry>
        </mxCell>
        <mxCell id="SeLx3FER-THGrYXA8y1y-177" value="RH" style="shape=partialRectangle;html=1;whiteSpace=wrap;connectable=0;strokeColor=inherit;overflow=hidden;fillColor=none;top=0;left=0;bottom=0;right=0;pointerEvents=1;fontFamily=Helvetica;fontSize=11;fontColor=default;" parent="SeLx3FER-THGrYXA8y1y-175" vertex="1">
          <mxGeometry x="90" width="90" height="40" as="geometry">
            <mxRectangle width="90" height="40" as="alternateBounds" />
          </mxGeometry>
        </mxCell>
        <mxCell id="SeLx3FER-THGrYXA8y1y-178" value="Curitiba" style="shape=partialRectangle;html=1;whiteSpace=wrap;connectable=0;strokeColor=inherit;overflow=hidden;fillColor=none;top=0;left=0;bottom=0;right=0;pointerEvents=1;fontFamily=Helvetica;fontSize=11;fontColor=default;" parent="SeLx3FER-THGrYXA8y1y-175" vertex="1">
          <mxGeometry x="180" width="90" height="40" as="geometry">
            <mxRectangle width="90" height="40" as="alternateBounds" />
          </mxGeometry>
        </mxCell>
        <mxCell id="SeLx3FER-THGrYXA8y1y-179" value="" style="shape=tableRow;horizontal=0;startSize=0;swimlaneHead=0;swimlaneBody=0;strokeColor=inherit;top=0;left=0;bottom=0;right=0;collapsible=0;dropTarget=0;fillColor=none;points=[[0,0.5],[1,0.5]];portConstraint=eastwest;fontFamily=Helvetica;fontSize=11;fontColor=default;" parent="SeLx3FER-THGrYXA8y1y-170" vertex="1">
          <mxGeometry y="110" width="270" height="40" as="geometry" />
        </mxCell>
        <mxCell id="SeLx3FER-THGrYXA8y1y-180" value="2" style="shape=partialRectangle;html=1;whiteSpace=wrap;connectable=0;strokeColor=inherit;overflow=hidden;fillColor=none;top=0;left=0;bottom=0;right=0;pointerEvents=1;fontFamily=Helvetica;fontSize=11;fontColor=default;" parent="SeLx3FER-THGrYXA8y1y-179" vertex="1">
          <mxGeometry width="90" height="40" as="geometry">
            <mxRectangle width="90" height="40" as="alternateBounds" />
          </mxGeometry>
        </mxCell>
        <mxCell id="SeLx3FER-THGrYXA8y1y-181" value="TI" style="shape=partialRectangle;html=1;whiteSpace=wrap;connectable=0;strokeColor=inherit;overflow=hidden;fillColor=none;top=0;left=0;bottom=0;right=0;pointerEvents=1;fontFamily=Helvetica;fontSize=11;fontColor=default;" parent="SeLx3FER-THGrYXA8y1y-179" vertex="1">
          <mxGeometry x="90" width="90" height="40" as="geometry">
            <mxRectangle width="90" height="40" as="alternateBounds" />
          </mxGeometry>
        </mxCell>
        <mxCell id="SeLx3FER-THGrYXA8y1y-182" value="Araucária" style="shape=partialRectangle;html=1;whiteSpace=wrap;connectable=0;strokeColor=inherit;overflow=hidden;fillColor=none;top=0;left=0;bottom=0;right=0;pointerEvents=1;fontFamily=Helvetica;fontSize=11;fontColor=default;" parent="SeLx3FER-THGrYXA8y1y-179" vertex="1">
          <mxGeometry x="180" width="90" height="40" as="geometry">
            <mxRectangle width="90" height="40" as="alternateBounds" />
          </mxGeometry>
        </mxCell>
        <mxCell id="SeLx3FER-THGrYXA8y1y-183" value="" style="shape=tableRow;horizontal=0;startSize=0;swimlaneHead=0;swimlaneBody=0;strokeColor=inherit;top=0;left=0;bottom=0;right=0;collapsible=0;dropTarget=0;fillColor=none;points=[[0,0.5],[1,0.5]];portConstraint=eastwest;fontFamily=Helvetica;fontSize=11;fontColor=default;" parent="SeLx3FER-THGrYXA8y1y-170" vertex="1">
          <mxGeometry y="150" width="270" height="40" as="geometry" />
        </mxCell>
        <mxCell id="SeLx3FER-THGrYXA8y1y-184" value="" style="shape=partialRectangle;html=1;whiteSpace=wrap;connectable=0;strokeColor=inherit;overflow=hidden;fillColor=none;top=0;left=0;bottom=0;right=0;pointerEvents=1;fontFamily=Helvetica;fontSize=11;fontColor=default;" parent="SeLx3FER-THGrYXA8y1y-183" vertex="1">
          <mxGeometry width="90" height="40" as="geometry">
            <mxRectangle width="90" height="40" as="alternateBounds" />
          </mxGeometry>
        </mxCell>
        <mxCell id="SeLx3FER-THGrYXA8y1y-185" value="" style="shape=partialRectangle;html=1;whiteSpace=wrap;connectable=0;strokeColor=inherit;overflow=hidden;fillColor=none;top=0;left=0;bottom=0;right=0;pointerEvents=1;fontFamily=Helvetica;fontSize=11;fontColor=default;" parent="SeLx3FER-THGrYXA8y1y-183" vertex="1">
          <mxGeometry x="90" width="90" height="40" as="geometry">
            <mxRectangle width="90" height="40" as="alternateBounds" />
          </mxGeometry>
        </mxCell>
        <mxCell id="SeLx3FER-THGrYXA8y1y-186" value="" style="shape=partialRectangle;html=1;whiteSpace=wrap;connectable=0;strokeColor=inherit;overflow=hidden;fillColor=none;top=0;left=0;bottom=0;right=0;pointerEvents=1;fontFamily=Helvetica;fontSize=11;fontColor=default;" parent="SeLx3FER-THGrYXA8y1y-183" vertex="1">
          <mxGeometry x="180" width="90" height="40" as="geometry">
            <mxRectangle width="90" height="40" as="alternateBounds" />
          </mxGeometry>
        </mxCell>
        <mxCell id="SeLx3FER-THGrYXA8y1y-197" style="edgeStyle=none;shape=connector;rounded=0;orthogonalLoop=1;jettySize=auto;html=1;entryX=0.5;entryY=0;entryDx=0;entryDy=0;labelBackgroundColor=default;fontFamily=Helvetica;fontSize=14;fontColor=default;endArrow=none;endFill=0;exitX=1;exitY=0.5;exitDx=0;exitDy=0;" parent="1" source="SeLx3FER-THGrYXA8y1y-187" target="SeLx3FER-THGrYXA8y1y-79" edge="1">
          <mxGeometry relative="1" as="geometry" />
        </mxCell>
        <mxCell id="SeLx3FER-THGrYXA8y1y-187" value="Controla" style="shape=rhombus;perimeter=rhombusPerimeter;whiteSpace=wrap;html=1;align=center;fontFamily=Helvetica;fontSize=14;" parent="1" vertex="1">
          <mxGeometry x="1250" y="1870" width="120" height="60" as="geometry" />
        </mxCell>
        <mxCell id="SeLx3FER-THGrYXA8y1y-193" style="edgeStyle=none;shape=connector;rounded=0;orthogonalLoop=1;jettySize=auto;html=1;entryX=0.5;entryY=1;entryDx=0;entryDy=0;labelBackgroundColor=default;fontFamily=Helvetica;fontSize=14;fontColor=default;endArrow=none;endFill=0;exitX=0.5;exitY=0;exitDx=0;exitDy=0;" parent="1" source="SeLx3FER-THGrYXA8y1y-188" target="SeLx3FER-THGrYXA8y1y-78" edge="1">
          <mxGeometry relative="1" as="geometry" />
        </mxCell>
        <mxCell id="SeLx3FER-THGrYXA8y1y-188" value="Trabalha para" style="shape=rhombus;perimeter=rhombusPerimeter;whiteSpace=wrap;html=1;align=center;fontFamily=Helvetica;fontSize=14;" parent="1" vertex="1">
          <mxGeometry x="1101" y="1870" width="120" height="60" as="geometry" />
        </mxCell>
        <mxCell id="SeLx3FER-THGrYXA8y1y-191" style="edgeStyle=none;shape=connector;rounded=0;orthogonalLoop=1;jettySize=auto;html=1;entryX=0;entryY=0.5;entryDx=0;entryDy=0;labelBackgroundColor=default;fontFamily=Helvetica;fontSize=14;fontColor=default;endArrow=none;endFill=0;exitX=0.908;exitY=0.475;exitDx=0;exitDy=0;exitPerimeter=0;" parent="1" source="SeLx3FER-THGrYXA8y1y-190" target="SeLx3FER-THGrYXA8y1y-79" edge="1">
          <mxGeometry relative="1" as="geometry">
            <mxPoint x="1301" y="1950" as="sourcePoint" />
          </mxGeometry>
        </mxCell>
        <mxCell id="SeLx3FER-THGrYXA8y1y-190" value="Trabalha para" style="shape=rhombus;perimeter=rhombusPerimeter;whiteSpace=wrap;html=1;align=center;fontFamily=Helvetica;fontSize=14;" parent="1" vertex="1">
          <mxGeometry x="1181" y="1955" width="120" height="60" as="geometry" />
        </mxCell>
        <mxCell id="SeLx3FER-THGrYXA8y1y-200" value="Atributo" style="ellipse;whiteSpace=wrap;html=1;align=center;fontSize=14;" parent="1" vertex="1">
          <mxGeometry x="1500" y="1720" width="100" height="40" as="geometry" />
        </mxCell>
        <mxCell id="SeLx3FER-THGrYXA8y1y-201" value="Entidade" style="whiteSpace=wrap;html=1;align=center;fontSize=14;" parent="1" vertex="1">
          <mxGeometry x="1479.5" y="1780" width="141" height="70" as="geometry" />
        </mxCell>
        <mxCell id="SeLx3FER-THGrYXA8y1y-203" value="Relacionamento" style="shape=rhombus;perimeter=rhombusPerimeter;whiteSpace=wrap;html=1;align=center;fontFamily=Helvetica;fontSize=14;" parent="1" vertex="1">
          <mxGeometry x="1479.5" y="1635" width="150" height="70" as="geometry" />
        </mxCell>
        <mxCell id="RCo3tT-71U8b_Dme8XYX-27" style="edgeStyle=orthogonalEdgeStyle;shape=connector;rounded=0;orthogonalLoop=1;jettySize=auto;html=1;labelBackgroundColor=default;strokeColor=default;fontFamily=Helvetica;fontSize=11;fontColor=default;endArrow=none;endFill=0;" parent="1" source="RCo3tT-71U8b_Dme8XYX-1" target="RCo3tT-71U8b_Dme8XYX-2" edge="1">
          <mxGeometry relative="1" as="geometry" />
        </mxCell>
        <mxCell id="RCo3tT-71U8b_Dme8XYX-1" value="Entidade 1" style="whiteSpace=wrap;html=1;align=center;fontSize=16;labelPosition=center;verticalLabelPosition=middle;verticalAlign=middle;spacingRight=4;spacing=28;" parent="1" vertex="1">
          <mxGeometry x="951.5" y="586.13" width="170" height="56" as="geometry" />
        </mxCell>
        <mxCell id="RCo3tT-71U8b_Dme8XYX-34" style="edgeStyle=orthogonalEdgeStyle;shape=connector;rounded=0;orthogonalLoop=1;jettySize=auto;html=1;entryX=0;entryY=0.5;entryDx=0;entryDy=0;labelBackgroundColor=default;strokeColor=default;fontFamily=Helvetica;fontSize=11;fontColor=default;endArrow=none;endFill=0;" parent="1" source="RCo3tT-71U8b_Dme8XYX-2" target="RCo3tT-71U8b_Dme8XYX-29" edge="1">
          <mxGeometry relative="1" as="geometry" />
        </mxCell>
        <mxCell id="RCo3tT-71U8b_Dme8XYX-2" value="Relacionamento" style="shape=rhombus;perimeter=rhombusPerimeter;whiteSpace=wrap;html=1;align=center;fontSize=16;labelPosition=center;verticalLabelPosition=middle;verticalAlign=middle;spacingRight=4;spacing=28;" parent="1" vertex="1">
          <mxGeometry x="1193" y="578.88" width="200" height="70.5" as="geometry" />
        </mxCell>
        <mxCell id="RCo3tT-71U8b_Dme8XYX-25" style="shape=connector;rounded=0;orthogonalLoop=1;jettySize=auto;html=1;exitX=0.5;exitY=1;exitDx=0;exitDy=0;labelBackgroundColor=default;strokeColor=default;fontFamily=Helvetica;fontSize=11;fontColor=default;endArrow=none;endFill=0;" parent="1" source="RCo3tT-71U8b_Dme8XYX-3" target="RCo3tT-71U8b_Dme8XYX-1" edge="1">
          <mxGeometry relative="1" as="geometry" />
        </mxCell>
        <mxCell id="RCo3tT-71U8b_Dme8XYX-3" value="Atributo 1" style="ellipse;whiteSpace=wrap;html=1;align=center;fontSize=16;labelPosition=center;verticalLabelPosition=middle;verticalAlign=middle;spacingRight=4;spacing=28;" parent="1" vertex="1">
          <mxGeometry x="880" y="490.63" width="181" height="55.5" as="geometry" />
        </mxCell>
        <mxCell id="RCo3tT-71U8b_Dme8XYX-13" style="edgeStyle=orthogonalEdgeStyle;rounded=0;orthogonalLoop=1;jettySize=auto;html=1;endArrow=none;endFill=0;fontSize=24;" parent="1" source="RCo3tT-71U8b_Dme8XYX-10" target="RCo3tT-71U8b_Dme8XYX-11" edge="1">
          <mxGeometry relative="1" as="geometry" />
        </mxCell>
        <mxCell id="RCo3tT-71U8b_Dme8XYX-15" value="N" style="edgeLabel;html=1;align=center;verticalAlign=middle;resizable=0;points=[];fontSize=20;fontFamily=Helvetica;fontColor=default;" parent="RCo3tT-71U8b_Dme8XYX-13" vertex="1" connectable="0">
          <mxGeometry x="0.2605" y="3" relative="1" as="geometry">
            <mxPoint as="offset" />
          </mxGeometry>
        </mxCell>
        <mxCell id="RCo3tT-71U8b_Dme8XYX-10" value="Funcionário" style="whiteSpace=wrap;html=1;align=center;fontSize=16;labelPosition=center;verticalLabelPosition=middle;verticalAlign=middle;spacingRight=4;spacing=2;" parent="1" vertex="1">
          <mxGeometry x="1040" y="135.5" width="121" height="51" as="geometry" />
        </mxCell>
        <mxCell id="RCo3tT-71U8b_Dme8XYX-14" style="edgeStyle=orthogonalEdgeStyle;rounded=0;orthogonalLoop=1;jettySize=auto;html=1;endArrow=none;endFill=0;fontSize=24;" parent="1" source="RCo3tT-71U8b_Dme8XYX-11" target="RCo3tT-71U8b_Dme8XYX-12" edge="1">
          <mxGeometry relative="1" as="geometry" />
        </mxCell>
        <mxCell id="RCo3tT-71U8b_Dme8XYX-16" value="1" style="edgeLabel;html=1;align=center;verticalAlign=middle;resizable=0;points=[];fontSize=19;fontFamily=Helvetica;fontColor=default;" parent="RCo3tT-71U8b_Dme8XYX-14" vertex="1" connectable="0">
          <mxGeometry x="0.0828" relative="1" as="geometry">
            <mxPoint as="offset" />
          </mxGeometry>
        </mxCell>
        <mxCell id="RCo3tT-71U8b_Dme8XYX-11" value="Trabalha para" style="shape=rhombus;perimeter=rhombusPerimeter;whiteSpace=wrap;html=1;align=center;fontSize=16;labelPosition=center;verticalLabelPosition=middle;verticalAlign=middle;spacingRight=4;spacing=2;" parent="1" vertex="1">
          <mxGeometry x="1272.5" y="123.75" width="160" height="74.5" as="geometry" />
        </mxCell>
        <mxCell id="RCo3tT-71U8b_Dme8XYX-12" value="Departamento" style="whiteSpace=wrap;html=1;align=center;fontSize=16;labelPosition=center;verticalLabelPosition=middle;verticalAlign=middle;spacingRight=4;spacing=2;" parent="1" vertex="1">
          <mxGeometry x="1550" y="135.5" width="121" height="51" as="geometry" />
        </mxCell>
        <mxCell id="RCo3tT-71U8b_Dme8XYX-17" style="edgeStyle=orthogonalEdgeStyle;rounded=0;orthogonalLoop=1;jettySize=auto;html=1;endArrow=none;endFill=0;fontSize=24;" parent="1" source="RCo3tT-71U8b_Dme8XYX-19" target="RCo3tT-71U8b_Dme8XYX-22" edge="1">
          <mxGeometry relative="1" as="geometry" />
        </mxCell>
        <mxCell id="RCo3tT-71U8b_Dme8XYX-18" value="(min, max)" style="edgeLabel;html=1;align=center;verticalAlign=middle;resizable=0;points=[];fontSize=20;fontFamily=Helvetica;fontColor=default;" parent="RCo3tT-71U8b_Dme8XYX-17" vertex="1" connectable="0">
          <mxGeometry x="0.2605" y="3" relative="1" as="geometry">
            <mxPoint x="-11" y="3" as="offset" />
          </mxGeometry>
        </mxCell>
        <mxCell id="RCo3tT-71U8b_Dme8XYX-19" value="Funcionário" style="whiteSpace=wrap;html=1;align=center;fontSize=16;labelPosition=center;verticalLabelPosition=middle;verticalAlign=middle;spacingRight=4;spacing=2;" parent="1" vertex="1">
          <mxGeometry x="939" y="251.75" width="121" height="51" as="geometry" />
        </mxCell>
        <mxCell id="RCo3tT-71U8b_Dme8XYX-20" style="edgeStyle=orthogonalEdgeStyle;rounded=0;orthogonalLoop=1;jettySize=auto;html=1;endArrow=none;endFill=0;fontSize=24;" parent="1" source="RCo3tT-71U8b_Dme8XYX-22" target="RCo3tT-71U8b_Dme8XYX-23" edge="1">
          <mxGeometry relative="1" as="geometry" />
        </mxCell>
        <mxCell id="RCo3tT-71U8b_Dme8XYX-21" value="(min, max)" style="edgeLabel;html=1;align=center;verticalAlign=middle;resizable=0;points=[];fontSize=19;fontFamily=Helvetica;fontColor=default;" parent="RCo3tT-71U8b_Dme8XYX-20" vertex="1" connectable="0">
          <mxGeometry x="0.0828" relative="1" as="geometry">
            <mxPoint as="offset" />
          </mxGeometry>
        </mxCell>
        <mxCell id="RCo3tT-71U8b_Dme8XYX-22" value="Trabalha para" style="shape=rhombus;perimeter=rhombusPerimeter;whiteSpace=wrap;html=1;align=center;fontSize=16;labelPosition=center;verticalLabelPosition=middle;verticalAlign=middle;spacingRight=4;spacing=2;" parent="1" vertex="1">
          <mxGeometry x="1195" y="240" width="160" height="74.5" as="geometry" />
        </mxCell>
        <mxCell id="RCo3tT-71U8b_Dme8XYX-23" value="Departamento" style="whiteSpace=wrap;html=1;align=center;fontSize=16;labelPosition=center;verticalLabelPosition=middle;verticalAlign=middle;spacingRight=4;spacing=2;" parent="1" vertex="1">
          <mxGeometry x="1550" y="251.75" width="121" height="51" as="geometry" />
        </mxCell>
        <mxCell id="RCo3tT-71U8b_Dme8XYX-26" style="shape=connector;rounded=0;orthogonalLoop=1;jettySize=auto;html=1;exitX=0.5;exitY=1;exitDx=0;exitDy=0;entryX=0.75;entryY=0;entryDx=0;entryDy=0;labelBackgroundColor=default;strokeColor=default;fontFamily=Helvetica;fontSize=11;fontColor=default;endArrow=none;endFill=0;" parent="1" source="RCo3tT-71U8b_Dme8XYX-24" target="RCo3tT-71U8b_Dme8XYX-1" edge="1">
          <mxGeometry relative="1" as="geometry" />
        </mxCell>
        <mxCell id="RCo3tT-71U8b_Dme8XYX-24" value="Atributo 2" style="ellipse;whiteSpace=wrap;html=1;align=center;fontSize=16;labelPosition=center;verticalLabelPosition=middle;verticalAlign=middle;spacingRight=4;spacing=28;" parent="1" vertex="1">
          <mxGeometry x="1060.5" y="495.63" width="181" height="50.5" as="geometry" />
        </mxCell>
        <mxCell id="RCo3tT-71U8b_Dme8XYX-29" value="Entidade 2" style="whiteSpace=wrap;html=1;align=center;fontSize=16;labelPosition=center;verticalLabelPosition=middle;verticalAlign=middle;spacingRight=4;spacing=28;" parent="1" vertex="1">
          <mxGeometry x="1461.5" y="586.13" width="170" height="56" as="geometry" />
        </mxCell>
        <mxCell id="RCo3tT-71U8b_Dme8XYX-30" style="shape=connector;rounded=0;orthogonalLoop=1;jettySize=auto;html=1;exitX=0.5;exitY=1;exitDx=0;exitDy=0;labelBackgroundColor=default;strokeColor=default;fontFamily=Helvetica;fontSize=11;fontColor=default;endArrow=none;endFill=0;" parent="1" source="RCo3tT-71U8b_Dme8XYX-31" target="RCo3tT-71U8b_Dme8XYX-29" edge="1">
          <mxGeometry relative="1" as="geometry" />
        </mxCell>
        <mxCell id="RCo3tT-71U8b_Dme8XYX-31" value="Atributo 3" style="ellipse;whiteSpace=wrap;html=1;align=center;fontSize=16;labelPosition=center;verticalLabelPosition=middle;verticalAlign=middle;spacingRight=4;spacing=28;" parent="1" vertex="1">
          <mxGeometry x="1299" y="495.63" width="181" height="55.5" as="geometry" />
        </mxCell>
        <mxCell id="RCo3tT-71U8b_Dme8XYX-32" style="shape=connector;rounded=0;orthogonalLoop=1;jettySize=auto;html=1;exitX=0.5;exitY=1;exitDx=0;exitDy=0;entryX=0.75;entryY=0;entryDx=0;entryDy=0;labelBackgroundColor=default;strokeColor=default;fontFamily=Helvetica;fontSize=11;fontColor=default;endArrow=none;endFill=0;" parent="1" source="RCo3tT-71U8b_Dme8XYX-33" target="RCo3tT-71U8b_Dme8XYX-29" edge="1">
          <mxGeometry relative="1" as="geometry" />
        </mxCell>
        <mxCell id="RCo3tT-71U8b_Dme8XYX-33" value="Atributo 4" style="ellipse;whiteSpace=wrap;html=1;align=center;fontSize=16;labelPosition=center;verticalLabelPosition=middle;verticalAlign=middle;spacingRight=4;spacing=28;" parent="1" vertex="1">
          <mxGeometry x="1500" y="498.13" width="181" height="50.5" as="geometry" />
        </mxCell>
        <mxCell id="RCo3tT-71U8b_Dme8XYX-35" value="Pessoa" style="whiteSpace=wrap;html=1;align=center;fontSize=16;" parent="1" vertex="1">
          <mxGeometry x="1870" y="135.5" width="141" height="70" as="geometry" />
        </mxCell>
        <mxCell id="RCo3tT-71U8b_Dme8XYX-36" style="rounded=0;orthogonalLoop=1;jettySize=auto;html=1;entryX=0.5;entryY=1;entryDx=0;entryDy=0;endArrow=none;endFill=0;fontSize=14;" parent="1" source="RCo3tT-71U8b_Dme8XYX-37" target="RCo3tT-71U8b_Dme8XYX-35" edge="1">
          <mxGeometry relative="1" as="geometry">
            <mxPoint x="2005.5" y="395.5" as="targetPoint" />
          </mxGeometry>
        </mxCell>
        <mxCell id="RCo3tT-71U8b_Dme8XYX-37" value="Nome" style="ellipse;whiteSpace=wrap;html=1;align=center;fontSize=14;" parent="1" vertex="1">
          <mxGeometry x="1750" y="205.5" width="100" height="40" as="geometry" />
        </mxCell>
        <mxCell id="RCo3tT-71U8b_Dme8XYX-38" style="edgeStyle=none;shape=connector;rounded=0;orthogonalLoop=1;jettySize=auto;html=1;exitX=0.5;exitY=0;exitDx=0;exitDy=0;entryX=0.5;entryY=1;entryDx=0;entryDy=0;labelBackgroundColor=default;fontFamily=Helvetica;fontSize=14;fontColor=default;endArrow=none;endFill=0;" parent="1" source="RCo3tT-71U8b_Dme8XYX-44" target="RCo3tT-71U8b_Dme8XYX-35" edge="1">
          <mxGeometry relative="1" as="geometry">
            <mxPoint x="2005.5" y="395.5" as="targetPoint" />
            <mxPoint x="1870" y="245.5" as="sourcePoint" />
          </mxGeometry>
        </mxCell>
        <mxCell id="RCo3tT-71U8b_Dme8XYX-40" style="edgeStyle=none;shape=connector;rounded=0;orthogonalLoop=1;jettySize=auto;html=1;labelBackgroundColor=default;fontFamily=Helvetica;fontSize=14;fontColor=default;endArrow=none;endFill=0;entryX=0.5;entryY=0;entryDx=0;entryDy=0;" parent="1" target="RCo3tT-71U8b_Dme8XYX-41" edge="1">
          <mxGeometry relative="1" as="geometry">
            <mxPoint x="1930" y="345.5" as="targetPoint" />
            <mxPoint x="1941" y="205.5" as="sourcePoint" />
          </mxGeometry>
        </mxCell>
        <mxCell id="RCo3tT-71U8b_Dme8XYX-41" value="Endereço" style="ellipse;whiteSpace=wrap;html=1;align=center;fontSize=14;" parent="1" vertex="1">
          <mxGeometry x="1960" y="235.5" width="100" height="40" as="geometry" />
        </mxCell>
        <mxCell id="RCo3tT-71U8b_Dme8XYX-42" style="edgeStyle=none;shape=connector;rounded=0;orthogonalLoop=1;jettySize=auto;html=1;exitX=0;exitY=0.5;exitDx=0;exitDy=0;labelBackgroundColor=default;fontFamily=Helvetica;fontSize=14;fontColor=default;endArrow=none;endFill=0;entryX=0.5;entryY=1;entryDx=0;entryDy=0;" parent="1" source="RCo3tT-71U8b_Dme8XYX-45" target="RCo3tT-71U8b_Dme8XYX-35" edge="1">
          <mxGeometry relative="1" as="geometry">
            <mxPoint x="1976" y="205.5" as="targetPoint" />
            <mxPoint x="2064.832218479704" y="221.28323725775272" as="sourcePoint" />
          </mxGeometry>
        </mxCell>
        <mxCell id="RCo3tT-71U8b_Dme8XYX-44" value="CPF" style="ellipse;whiteSpace=wrap;html=1;align=center;fontStyle=4;fontFamily=Helvetica;fontSize=13;fontColor=default;" parent="1" vertex="1">
          <mxGeometry x="1840" y="235.5" width="100" height="40" as="geometry" />
        </mxCell>
        <mxCell id="RCo3tT-71U8b_Dme8XYX-45" value="RG" style="ellipse;whiteSpace=wrap;html=1;align=center;fontStyle=4;fontFamily=Helvetica;fontSize=13;fontColor=default;" parent="1" vertex="1">
          <mxGeometry x="2040" y="195.5" width="100" height="40" as="geometry" />
        </mxCell>
        <mxCell id="RCo3tT-71U8b_Dme8XYX-46" value="Pedido" style="whiteSpace=wrap;html=1;align=center;fontSize=16;" parent="1" vertex="1">
          <mxGeometry x="2280" y="355.5" width="120" height="40" as="geometry" />
        </mxCell>
        <mxCell id="RCo3tT-71U8b_Dme8XYX-47" value="IdPedido" style="ellipse;whiteSpace=wrap;html=1;align=center;fontStyle=4;fontFamily=Helvetica;fontSize=13;fontColor=default;" parent="1" vertex="1">
          <mxGeometry x="2180.5" y="415.5" width="100" height="40" as="geometry" />
        </mxCell>
        <mxCell id="RCo3tT-71U8b_Dme8XYX-48" value="Valor" style="ellipse;whiteSpace=wrap;html=1;align=center;fontSize=14;" parent="1" vertex="1">
          <mxGeometry x="2290" y="425.5" width="100" height="40" as="geometry" />
        </mxCell>
        <mxCell id="RCo3tT-71U8b_Dme8XYX-49" value="Data" style="ellipse;whiteSpace=wrap;html=1;align=center;fontSize=14;" parent="1" vertex="1">
          <mxGeometry x="2400" y="415.5" width="100" height="40" as="geometry" />
        </mxCell>
        <mxCell id="RCo3tT-71U8b_Dme8XYX-50" value="Cliente" style="whiteSpace=wrap;html=1;align=center;fontSize=16;" parent="1" vertex="1">
          <mxGeometry x="1880.5" y="350.5" width="111" height="50" as="geometry" />
        </mxCell>
        <mxCell id="RCo3tT-71U8b_Dme8XYX-51" style="rounded=0;orthogonalLoop=1;jettySize=auto;html=1;entryX=0.25;entryY=1;entryDx=0;entryDy=0;endArrow=none;endFill=0;fontSize=14;exitX=1;exitY=0;exitDx=0;exitDy=0;" parent="1" source="RCo3tT-71U8b_Dme8XYX-47" target="RCo3tT-71U8b_Dme8XYX-46" edge="1">
          <mxGeometry relative="1" as="geometry">
            <mxPoint x="2321" y="405.5" as="targetPoint" />
            <mxPoint x="2227" y="418.5" as="sourcePoint" />
          </mxGeometry>
        </mxCell>
        <mxCell id="RCo3tT-71U8b_Dme8XYX-52" style="rounded=0;orthogonalLoop=1;jettySize=auto;html=1;entryX=0.5;entryY=1;entryDx=0;entryDy=0;endArrow=none;endFill=0;fontSize=14;exitX=0.5;exitY=0;exitDx=0;exitDy=0;" parent="1" source="RCo3tT-71U8b_Dme8XYX-48" target="RCo3tT-71U8b_Dme8XYX-46" edge="1">
          <mxGeometry relative="1" as="geometry">
            <mxPoint x="2320" y="405.5" as="targetPoint" />
            <mxPoint x="2241" y="425.5" as="sourcePoint" />
          </mxGeometry>
        </mxCell>
        <mxCell id="RCo3tT-71U8b_Dme8XYX-53" style="rounded=0;orthogonalLoop=1;jettySize=auto;html=1;entryX=0.75;entryY=1;entryDx=0;entryDy=0;endArrow=none;endFill=0;fontSize=14;" parent="1" source="RCo3tT-71U8b_Dme8XYX-49" target="RCo3tT-71U8b_Dme8XYX-46" edge="1">
          <mxGeometry relative="1" as="geometry">
            <mxPoint x="2330" y="415.5" as="targetPoint" />
            <mxPoint x="2251" y="435.5" as="sourcePoint" />
          </mxGeometry>
        </mxCell>
        <mxCell id="RCo3tT-71U8b_Dme8XYX-54" value="Nome" style="ellipse;whiteSpace=wrap;html=1;align=center;fontSize=14;" parent="1" vertex="1">
          <mxGeometry x="1830.5" y="435.5" width="100" height="40" as="geometry" />
        </mxCell>
        <mxCell id="RCo3tT-71U8b_Dme8XYX-55" value="CPF" style="ellipse;whiteSpace=wrap;html=1;align=center;fontStyle=4;fontFamily=Helvetica;fontSize=13;fontColor=default;" parent="1" vertex="1">
          <mxGeometry x="1751.5" y="400.5" width="100" height="40" as="geometry" />
        </mxCell>
        <mxCell id="RCo3tT-71U8b_Dme8XYX-56" value="Endereço" style="ellipse;whiteSpace=wrap;html=1;align=center;fontSize=14;" parent="1" vertex="1">
          <mxGeometry x="1950.5" y="435.5" width="100" height="40" as="geometry" />
        </mxCell>
        <mxCell id="RCo3tT-71U8b_Dme8XYX-57" value="Cidade" style="ellipse;whiteSpace=wrap;html=1;align=center;fontSize=14;" parent="1" vertex="1">
          <mxGeometry x="2020.5" y="400.5" width="100" height="40" as="geometry" />
        </mxCell>
        <mxCell id="RCo3tT-71U8b_Dme8XYX-58" style="rounded=0;orthogonalLoop=1;jettySize=auto;html=1;entryX=0.25;entryY=1;entryDx=0;entryDy=0;endArrow=none;endFill=0;fontSize=14;exitX=1;exitY=0;exitDx=0;exitDy=0;" parent="1" source="RCo3tT-71U8b_Dme8XYX-55" target="RCo3tT-71U8b_Dme8XYX-50" edge="1">
          <mxGeometry relative="1" as="geometry">
            <mxPoint x="1470.5" y="385.5" as="targetPoint" />
            <mxPoint x="1519.5" y="409.5" as="sourcePoint" />
          </mxGeometry>
        </mxCell>
        <mxCell id="RCo3tT-71U8b_Dme8XYX-59" style="rounded=0;orthogonalLoop=1;jettySize=auto;html=1;entryX=0.5;entryY=1;entryDx=0;entryDy=0;endArrow=none;endFill=0;fontSize=14;" parent="1" source="RCo3tT-71U8b_Dme8XYX-54" target="RCo3tT-71U8b_Dme8XYX-50" edge="1">
          <mxGeometry relative="1" as="geometry">
            <mxPoint x="1480.5" y="395.5" as="targetPoint" />
            <mxPoint x="1529.5" y="419.5" as="sourcePoint" />
          </mxGeometry>
        </mxCell>
        <mxCell id="RCo3tT-71U8b_Dme8XYX-60" style="rounded=0;orthogonalLoop=1;jettySize=auto;html=1;entryX=0.5;entryY=1;entryDx=0;entryDy=0;endArrow=none;endFill=0;fontSize=14;" parent="1" source="RCo3tT-71U8b_Dme8XYX-56" target="RCo3tT-71U8b_Dme8XYX-50" edge="1">
          <mxGeometry relative="1" as="geometry">
            <mxPoint x="1946.5" y="395.5" as="targetPoint" />
            <mxPoint x="1890.5" y="425.5" as="sourcePoint" />
          </mxGeometry>
        </mxCell>
        <mxCell id="RCo3tT-71U8b_Dme8XYX-61" style="rounded=0;orthogonalLoop=1;jettySize=auto;html=1;entryX=0.75;entryY=1;entryDx=0;entryDy=0;endArrow=none;endFill=0;fontSize=14;" parent="1" source="RCo3tT-71U8b_Dme8XYX-57" target="RCo3tT-71U8b_Dme8XYX-50" edge="1">
          <mxGeometry relative="1" as="geometry">
            <mxPoint x="1956.5" y="405.5" as="targetPoint" />
            <mxPoint x="1900.5" y="435.5" as="sourcePoint" />
          </mxGeometry>
        </mxCell>
        <mxCell id="RCo3tT-71U8b_Dme8XYX-62" value="Realiza" style="shape=rhombus;perimeter=rhombusPerimeter;whiteSpace=wrap;html=1;align=center;fontFamily=Helvetica;fontSize=15;fontColor=default;" parent="1" vertex="1">
          <mxGeometry x="2090.5" y="335.5" width="120" height="60" as="geometry" />
        </mxCell>
        <mxCell id="RCo3tT-71U8b_Dme8XYX-63" style="rounded=0;orthogonalLoop=1;jettySize=auto;html=1;entryX=1;entryY=0.5;entryDx=0;entryDy=0;endArrow=none;endFill=0;fontSize=14;exitX=0;exitY=0.5;exitDx=0;exitDy=0;" parent="1" source="RCo3tT-71U8b_Dme8XYX-62" target="RCo3tT-71U8b_Dme8XYX-50" edge="1">
          <mxGeometry relative="1" as="geometry">
            <mxPoint x="1973.5" y="405.5" as="targetPoint" />
            <mxPoint x="2035.5" y="416.5" as="sourcePoint" />
          </mxGeometry>
        </mxCell>
        <mxCell id="RCo3tT-71U8b_Dme8XYX-64" style="rounded=0;orthogonalLoop=1;jettySize=auto;html=1;entryX=1;entryY=0.5;entryDx=0;entryDy=0;endArrow=none;endFill=0;fontSize=14;exitX=0;exitY=0.5;exitDx=0;exitDy=0;" parent="1" source="RCo3tT-71U8b_Dme8XYX-46" target="RCo3tT-71U8b_Dme8XYX-62" edge="1">
          <mxGeometry relative="1" as="geometry">
            <mxPoint x="2220.5" y="365.50000000000045" as="targetPoint" />
            <mxPoint x="2319.5" y="335.5" as="sourcePoint" />
          </mxGeometry>
        </mxCell>
        <mxCell id="RCo3tT-71U8b_Dme8XYX-65" value="Cliente" style="whiteSpace=wrap;html=1;align=center;fontSize=16;" parent="1" vertex="1">
          <mxGeometry x="2279" y="145.5" width="111" height="50" as="geometry" />
        </mxCell>
        <mxCell id="RCo3tT-71U8b_Dme8XYX-66" value="Nome" style="ellipse;whiteSpace=wrap;html=1;align=center;fontSize=14;" parent="1" vertex="1">
          <mxGeometry x="2229" y="230.5" width="100" height="40" as="geometry" />
        </mxCell>
        <mxCell id="RCo3tT-71U8b_Dme8XYX-67" value="CPF" style="ellipse;whiteSpace=wrap;html=1;align=center;fontStyle=4;fontFamily=Helvetica;fontSize=13;fontColor=default;" parent="1" vertex="1">
          <mxGeometry x="2150" y="195.5" width="100" height="40" as="geometry" />
        </mxCell>
        <mxCell id="RCo3tT-71U8b_Dme8XYX-68" value="Endereço" style="ellipse;whiteSpace=wrap;html=1;align=center;fontSize=14;" parent="1" vertex="1">
          <mxGeometry x="2349" y="230.5" width="100" height="40" as="geometry" />
        </mxCell>
        <mxCell id="RCo3tT-71U8b_Dme8XYX-69" value="Cidade" style="ellipse;whiteSpace=wrap;html=1;align=center;fontSize=14;" parent="1" vertex="1">
          <mxGeometry x="2419" y="195.5" width="100" height="40" as="geometry" />
        </mxCell>
        <mxCell id="RCo3tT-71U8b_Dme8XYX-70" style="rounded=0;orthogonalLoop=1;jettySize=auto;html=1;entryX=0.25;entryY=1;entryDx=0;entryDy=0;endArrow=none;endFill=0;fontSize=14;exitX=1;exitY=0;exitDx=0;exitDy=0;" parent="1" source="RCo3tT-71U8b_Dme8XYX-67" target="RCo3tT-71U8b_Dme8XYX-65" edge="1">
          <mxGeometry relative="1" as="geometry">
            <mxPoint x="1869" y="180.5" as="targetPoint" />
            <mxPoint x="1918" y="204.5" as="sourcePoint" />
          </mxGeometry>
        </mxCell>
        <mxCell id="RCo3tT-71U8b_Dme8XYX-71" style="rounded=0;orthogonalLoop=1;jettySize=auto;html=1;entryX=0.5;entryY=1;entryDx=0;entryDy=0;endArrow=none;endFill=0;fontSize=14;" parent="1" source="RCo3tT-71U8b_Dme8XYX-66" target="RCo3tT-71U8b_Dme8XYX-65" edge="1">
          <mxGeometry relative="1" as="geometry">
            <mxPoint x="1879" y="190.5" as="targetPoint" />
            <mxPoint x="1928" y="214.5" as="sourcePoint" />
          </mxGeometry>
        </mxCell>
        <mxCell id="RCo3tT-71U8b_Dme8XYX-72" style="rounded=0;orthogonalLoop=1;jettySize=auto;html=1;entryX=0.5;entryY=1;entryDx=0;entryDy=0;endArrow=none;endFill=0;fontSize=14;" parent="1" source="RCo3tT-71U8b_Dme8XYX-68" target="RCo3tT-71U8b_Dme8XYX-65" edge="1">
          <mxGeometry relative="1" as="geometry">
            <mxPoint x="2345" y="190.5" as="targetPoint" />
            <mxPoint x="2289" y="220.5" as="sourcePoint" />
          </mxGeometry>
        </mxCell>
        <mxCell id="RCo3tT-71U8b_Dme8XYX-73" style="rounded=0;orthogonalLoop=1;jettySize=auto;html=1;entryX=0.75;entryY=1;entryDx=0;entryDy=0;endArrow=none;endFill=0;fontSize=14;" parent="1" source="RCo3tT-71U8b_Dme8XYX-69" target="RCo3tT-71U8b_Dme8XYX-65" edge="1">
          <mxGeometry relative="1" as="geometry">
            <mxPoint x="2355" y="200.5" as="targetPoint" />
            <mxPoint x="2299" y="230.5" as="sourcePoint" />
          </mxGeometry>
        </mxCell>
        <mxCell id="RCo3tT-71U8b_Dme8XYX-90" style="edgeStyle=orthogonalEdgeStyle;shape=connector;rounded=0;orthogonalLoop=1;jettySize=auto;html=1;labelBackgroundColor=default;strokeColor=default;fontFamily=Helvetica;fontSize=11;fontColor=default;endArrow=none;endFill=0;" parent="1" source="RCo3tT-71U8b_Dme8XYX-79" target="RCo3tT-71U8b_Dme8XYX-89" edge="1">
          <mxGeometry relative="1" as="geometry" />
        </mxCell>
        <mxCell id="RCo3tT-71U8b_Dme8XYX-79" value="Funcionario" style="whiteSpace=wrap;html=1;align=center;fontSize=14;" parent="1" vertex="1">
          <mxGeometry x="2075" y="827.5" width="141" height="40" as="geometry" />
        </mxCell>
        <mxCell id="RCo3tT-71U8b_Dme8XYX-80" style="rounded=0;orthogonalLoop=1;jettySize=auto;html=1;entryX=0.25;entryY=0;entryDx=0;entryDy=0;endArrow=none;endFill=0;fontSize=14;" parent="1" source="RCo3tT-71U8b_Dme8XYX-81" target="RCo3tT-71U8b_Dme8XYX-79" edge="1">
          <mxGeometry relative="1" as="geometry">
            <mxPoint x="2241" y="880.5" as="targetPoint" />
          </mxGeometry>
        </mxCell>
        <mxCell id="RCo3tT-71U8b_Dme8XYX-81" value="Nome" style="ellipse;whiteSpace=wrap;html=1;align=center;fontSize=14;" parent="1" vertex="1">
          <mxGeometry x="2034" y="765.5" width="100" height="40" as="geometry" />
        </mxCell>
        <mxCell id="RCo3tT-71U8b_Dme8XYX-82" style="edgeStyle=none;shape=connector;rounded=0;orthogonalLoop=1;jettySize=auto;html=1;labelBackgroundColor=default;fontFamily=Helvetica;fontSize=14;fontColor=default;endArrow=none;endFill=0;" parent="1" source="RCo3tT-71U8b_Dme8XYX-83" target="RCo3tT-71U8b_Dme8XYX-79" edge="1">
          <mxGeometry relative="1" as="geometry">
            <mxPoint x="2241" y="880.5" as="targetPoint" />
          </mxGeometry>
        </mxCell>
        <mxCell id="RCo3tT-71U8b_Dme8XYX-83" value="CPF" style="ellipse;whiteSpace=wrap;html=1;align=center;fontSize=14;" parent="1" vertex="1">
          <mxGeometry x="2152" y="765.5" width="100" height="40" as="geometry" />
        </mxCell>
        <mxCell id="RCo3tT-71U8b_Dme8XYX-84" style="edgeStyle=none;shape=connector;rounded=0;orthogonalLoop=1;jettySize=auto;html=1;labelBackgroundColor=default;fontFamily=Helvetica;fontSize=14;fontColor=default;endArrow=none;endFill=0;" parent="1" source="RCo3tT-71U8b_Dme8XYX-79" target="RCo3tT-71U8b_Dme8XYX-85" edge="1">
          <mxGeometry relative="1" as="geometry">
            <mxPoint x="2165.5" y="830.5" as="targetPoint" />
            <mxPoint x="2176.5" y="690.5" as="sourcePoint" />
          </mxGeometry>
        </mxCell>
        <mxCell id="RCo3tT-71U8b_Dme8XYX-85" value="RG" style="ellipse;whiteSpace=wrap;html=1;align=center;fontSize=14;" parent="1" vertex="1">
          <mxGeometry x="2238" y="797.5" width="100" height="40" as="geometry" />
        </mxCell>
        <mxCell id="RCo3tT-71U8b_Dme8XYX-88" value="Dependente" style="shape=ext;margin=3;double=1;whiteSpace=wrap;html=1;align=center;fontFamily=Helvetica;fontSize=11;fontColor=default;" parent="1" vertex="1">
          <mxGeometry x="2095.5" y="977.5" width="100" height="40" as="geometry" />
        </mxCell>
        <mxCell id="RCo3tT-71U8b_Dme8XYX-91" style="edgeStyle=orthogonalEdgeStyle;shape=connector;rounded=0;orthogonalLoop=1;jettySize=auto;html=1;labelBackgroundColor=default;strokeColor=default;fontFamily=Helvetica;fontSize=11;fontColor=default;endArrow=none;endFill=0;" parent="1" source="RCo3tT-71U8b_Dme8XYX-89" target="RCo3tT-71U8b_Dme8XYX-88" edge="1">
          <mxGeometry relative="1" as="geometry" />
        </mxCell>
        <mxCell id="RCo3tT-71U8b_Dme8XYX-89" value="Depende" style="shape=rhombus;double=1;perimeter=rhombusPerimeter;whiteSpace=wrap;html=1;align=center;fontFamily=Helvetica;fontSize=11;fontColor=default;" parent="1" vertex="1">
          <mxGeometry x="2085.5" y="897.5" width="120" height="60" as="geometry" />
        </mxCell>
        <mxCell id="RCo3tT-71U8b_Dme8XYX-92" value="&lt;span style=&quot;border-bottom: 1px dotted&quot;&gt;IdDependente&lt;/span&gt;" style="ellipse;whiteSpace=wrap;html=1;align=center;fontFamily=Helvetica;fontSize=11;fontColor=default;" parent="1" vertex="1">
          <mxGeometry x="1975" y="987.5" width="100" height="40" as="geometry" />
        </mxCell>
        <mxCell id="RCo3tT-71U8b_Dme8XYX-94" style="shape=connector;rounded=0;orthogonalLoop=1;jettySize=auto;html=1;labelBackgroundColor=default;strokeColor=default;fontFamily=Helvetica;fontSize=11;fontColor=default;endArrow=none;endFill=0;" parent="1" source="RCo3tT-71U8b_Dme8XYX-88" target="RCo3tT-71U8b_Dme8XYX-92" edge="1">
          <mxGeometry relative="1" as="geometry">
            <mxPoint x="2156" y="967.5" as="sourcePoint" />
            <mxPoint x="2156" y="987.5" as="targetPoint" />
          </mxGeometry>
        </mxCell>
        <mxCell id="RCo3tT-71U8b_Dme8XYX-99" style="edgeStyle=none;shape=connector;rounded=0;orthogonalLoop=1;jettySize=auto;html=1;labelBackgroundColor=default;strokeColor=default;fontFamily=Helvetica;fontSize=11;fontColor=default;endArrow=none;endFill=0;" parent="1" source="RCo3tT-71U8b_Dme8XYX-95" target="RCo3tT-71U8b_Dme8XYX-88" edge="1">
          <mxGeometry relative="1" as="geometry" />
        </mxCell>
        <mxCell id="RCo3tT-71U8b_Dme8XYX-95" value="Nome" style="ellipse;whiteSpace=wrap;html=1;align=center;fontSize=14;" parent="1" vertex="1">
          <mxGeometry x="1995.5" y="1037.5" width="100" height="40" as="geometry" />
        </mxCell>
        <mxCell id="RCo3tT-71U8b_Dme8XYX-100" style="edgeStyle=none;shape=connector;rounded=0;orthogonalLoop=1;jettySize=auto;html=1;labelBackgroundColor=default;strokeColor=default;fontFamily=Helvetica;fontSize=11;fontColor=default;endArrow=none;endFill=0;" parent="1" source="RCo3tT-71U8b_Dme8XYX-96" target="RCo3tT-71U8b_Dme8XYX-88" edge="1">
          <mxGeometry relative="1" as="geometry" />
        </mxCell>
        <mxCell id="RCo3tT-71U8b_Dme8XYX-96" value="CPF" style="ellipse;whiteSpace=wrap;html=1;align=center;fontSize=14;" parent="1" vertex="1">
          <mxGeometry x="2095.5" y="1047.5" width="100" height="40" as="geometry" />
        </mxCell>
        <mxCell id="RCo3tT-71U8b_Dme8XYX-101" style="edgeStyle=none;shape=connector;rounded=0;orthogonalLoop=1;jettySize=auto;html=1;exitX=0;exitY=0;exitDx=0;exitDy=0;labelBackgroundColor=default;strokeColor=default;fontFamily=Helvetica;fontSize=11;fontColor=default;endArrow=none;endFill=0;" parent="1" source="RCo3tT-71U8b_Dme8XYX-97" target="RCo3tT-71U8b_Dme8XYX-88" edge="1">
          <mxGeometry relative="1" as="geometry">
            <mxPoint x="2283" y="1047.4999999999995" as="targetPoint" />
          </mxGeometry>
        </mxCell>
        <mxCell id="RCo3tT-71U8b_Dme8XYX-97" value="RG" style="ellipse;whiteSpace=wrap;html=1;align=center;fontSize=14;" parent="1" vertex="1">
          <mxGeometry x="2203" y="1027.5" width="100" height="40" as="geometry" />
        </mxCell>
        <mxCell id="RCo3tT-71U8b_Dme8XYX-103" style="edgeStyle=none;shape=connector;rounded=0;orthogonalLoop=1;jettySize=auto;html=1;labelBackgroundColor=default;strokeColor=default;fontFamily=Helvetica;fontSize=11;fontColor=default;endArrow=none;endFill=0;" parent="1" source="RCo3tT-71U8b_Dme8XYX-102" target="RCo3tT-71U8b_Dme8XYX-88" edge="1">
          <mxGeometry relative="1" as="geometry" />
        </mxCell>
        <mxCell id="RCo3tT-71U8b_Dme8XYX-102" value="Parentesco" style="ellipse;whiteSpace=wrap;html=1;align=center;fontSize=14;" parent="1" vertex="1">
          <mxGeometry x="2238" y="987.5" width="100" height="40" as="geometry" />
        </mxCell>
        <mxCell id="RCo3tT-71U8b_Dme8XYX-106" style="edgeStyle=none;shape=connector;rounded=0;orthogonalLoop=1;jettySize=auto;html=1;labelBackgroundColor=default;strokeColor=default;fontFamily=Helvetica;fontSize=11;fontColor=default;endArrow=none;endFill=0;" parent="1" source="RCo3tT-71U8b_Dme8XYX-107" target="RCo3tT-71U8b_Dme8XYX-79" edge="1">
          <mxGeometry relative="1" as="geometry" />
        </mxCell>
        <mxCell id="RCo3tT-71U8b_Dme8XYX-107" value="IdFuncionario" style="ellipse;whiteSpace=wrap;html=1;align=center;fontStyle=4;fontFamily=Helvetica;fontSize=11;fontColor=default;" parent="1" vertex="1">
          <mxGeometry x="1963" y="797.5" width="100" height="40" as="geometry" />
        </mxCell>
        <mxCell id="RCo3tT-71U8b_Dme8XYX-129" style="edgeStyle=none;shape=connector;rounded=0;orthogonalLoop=1;jettySize=auto;html=1;labelBackgroundColor=default;strokeColor=default;fontFamily=Helvetica;fontSize=17;fontColor=default;endArrow=none;endFill=0;" parent="1" source="RCo3tT-71U8b_Dme8XYX-131" target="RCo3tT-71U8b_Dme8XYX-147" edge="1">
          <mxGeometry relative="1" as="geometry" />
        </mxCell>
        <mxCell id="RCo3tT-71U8b_Dme8XYX-130" value="N" style="edgeLabel;html=1;align=center;verticalAlign=middle;resizable=0;points=[];fontSize=15;fontFamily=Helvetica;fontColor=default;" parent="RCo3tT-71U8b_Dme8XYX-129" vertex="1" connectable="0">
          <mxGeometry x="0.4911" y="2" relative="1" as="geometry">
            <mxPoint as="offset" />
          </mxGeometry>
        </mxCell>
        <mxCell id="RCo3tT-71U8b_Dme8XYX-131" value="Funcionario" style="whiteSpace=wrap;html=1;align=center;fontSize=14;" parent="1" vertex="1">
          <mxGeometry x="1920.5" y="1237" width="141" height="40" as="geometry" />
        </mxCell>
        <mxCell id="RCo3tT-71U8b_Dme8XYX-132" style="rounded=0;orthogonalLoop=1;jettySize=auto;html=1;entryX=0.25;entryY=0;entryDx=0;entryDy=0;endArrow=none;endFill=0;fontSize=14;" parent="1" source="RCo3tT-71U8b_Dme8XYX-133" target="RCo3tT-71U8b_Dme8XYX-131" edge="1">
          <mxGeometry relative="1" as="geometry">
            <mxPoint x="2086.5" y="1290" as="targetPoint" />
          </mxGeometry>
        </mxCell>
        <mxCell id="RCo3tT-71U8b_Dme8XYX-133" value="Nome" style="ellipse;whiteSpace=wrap;html=1;align=center;fontSize=14;" parent="1" vertex="1">
          <mxGeometry x="1861.5" y="1175" width="100" height="40" as="geometry" />
        </mxCell>
        <mxCell id="RCo3tT-71U8b_Dme8XYX-134" style="edgeStyle=none;shape=connector;rounded=0;orthogonalLoop=1;jettySize=auto;html=1;labelBackgroundColor=default;fontFamily=Helvetica;fontSize=14;fontColor=default;endArrow=none;endFill=0;" parent="1" source="RCo3tT-71U8b_Dme8XYX-135" target="RCo3tT-71U8b_Dme8XYX-131" edge="1">
          <mxGeometry relative="1" as="geometry">
            <mxPoint x="2086.5" y="1290" as="targetPoint" />
          </mxGeometry>
        </mxCell>
        <mxCell id="RCo3tT-71U8b_Dme8XYX-135" value="CPF" style="ellipse;whiteSpace=wrap;html=1;align=center;fontSize=14;" parent="1" vertex="1">
          <mxGeometry x="1808.5" y="1267" width="100" height="40" as="geometry" />
        </mxCell>
        <mxCell id="RCo3tT-71U8b_Dme8XYX-136" style="edgeStyle=none;shape=connector;rounded=0;orthogonalLoop=1;jettySize=auto;html=1;labelBackgroundColor=default;fontFamily=Helvetica;fontSize=14;fontColor=default;endArrow=none;endFill=0;" parent="1" source="RCo3tT-71U8b_Dme8XYX-131" target="RCo3tT-71U8b_Dme8XYX-137" edge="1">
          <mxGeometry relative="1" as="geometry">
            <mxPoint x="2011" y="1240" as="targetPoint" />
            <mxPoint x="2022" y="1100" as="sourcePoint" />
          </mxGeometry>
        </mxCell>
        <mxCell id="RCo3tT-71U8b_Dme8XYX-137" value="RG" style="ellipse;whiteSpace=wrap;html=1;align=center;fontSize=14;" parent="1" vertex="1">
          <mxGeometry x="1891.5" y="1300" width="100" height="40" as="geometry" />
        </mxCell>
        <mxCell id="RCo3tT-71U8b_Dme8XYX-138" style="edgeStyle=none;shape=connector;rounded=0;orthogonalLoop=1;jettySize=auto;html=1;labelBackgroundColor=default;strokeColor=default;fontFamily=Helvetica;fontSize=11;fontColor=default;endArrow=none;endFill=0;" parent="1" source="RCo3tT-71U8b_Dme8XYX-139" target="RCo3tT-71U8b_Dme8XYX-131" edge="1">
          <mxGeometry relative="1" as="geometry" />
        </mxCell>
        <mxCell id="RCo3tT-71U8b_Dme8XYX-139" value="IdFuncionario" style="ellipse;whiteSpace=wrap;html=1;align=center;fontStyle=4;fontFamily=Helvetica;fontSize=14;fontColor=default;" parent="1" vertex="1">
          <mxGeometry x="1790" y="1217" width="111.5" height="43" as="geometry" />
        </mxCell>
        <mxCell id="RCo3tT-71U8b_Dme8XYX-140" value="Departamento" style="whiteSpace=wrap;html=1;align=center;fontSize=14;" parent="1" vertex="1">
          <mxGeometry x="2289" y="1237" width="141" height="40" as="geometry" />
        </mxCell>
        <mxCell id="RCo3tT-71U8b_Dme8XYX-141" style="edgeStyle=none;shape=connector;rounded=0;orthogonalLoop=1;jettySize=auto;html=1;labelBackgroundColor=default;strokeColor=default;fontFamily=Helvetica;fontSize=11;fontColor=default;endArrow=none;endFill=0;" parent="1" source="RCo3tT-71U8b_Dme8XYX-142" target="RCo3tT-71U8b_Dme8XYX-140" edge="1">
          <mxGeometry relative="1" as="geometry" />
        </mxCell>
        <mxCell id="RCo3tT-71U8b_Dme8XYX-142" value="IdDepartamento" style="ellipse;whiteSpace=wrap;html=1;align=center;fontStyle=4;fontFamily=Helvetica;fontSize=14;fontColor=default;" parent="1" vertex="1">
          <mxGeometry x="2352" y="1177" width="128" height="44" as="geometry" />
        </mxCell>
        <mxCell id="RCo3tT-71U8b_Dme8XYX-143" style="edgeStyle=none;shape=connector;rounded=0;orthogonalLoop=1;jettySize=auto;html=1;labelBackgroundColor=default;strokeColor=default;fontFamily=Helvetica;fontSize=11;fontColor=default;endArrow=none;endFill=0;" parent="1" source="RCo3tT-71U8b_Dme8XYX-144" target="RCo3tT-71U8b_Dme8XYX-140" edge="1">
          <mxGeometry relative="1" as="geometry" />
        </mxCell>
        <mxCell id="RCo3tT-71U8b_Dme8XYX-144" value="Nome" style="ellipse;whiteSpace=wrap;html=1;align=center;fontSize=14;" parent="1" vertex="1">
          <mxGeometry x="2361" y="1293" width="100" height="40" as="geometry" />
        </mxCell>
        <mxCell id="RCo3tT-71U8b_Dme8XYX-145" style="edgeStyle=none;shape=connector;rounded=0;orthogonalLoop=1;jettySize=auto;html=1;labelBackgroundColor=default;strokeColor=default;fontFamily=Helvetica;fontSize=11;fontColor=default;endArrow=none;endFill=0;" parent="1" source="RCo3tT-71U8b_Dme8XYX-147" target="RCo3tT-71U8b_Dme8XYX-140" edge="1">
          <mxGeometry relative="1" as="geometry" />
        </mxCell>
        <mxCell id="RCo3tT-71U8b_Dme8XYX-146" value="1" style="edgeLabel;html=1;align=center;verticalAlign=middle;resizable=0;points=[];fontSize=17;fontFamily=Helvetica;fontColor=default;" parent="RCo3tT-71U8b_Dme8XYX-145" vertex="1" connectable="0">
          <mxGeometry x="0.0591" y="-1" relative="1" as="geometry">
            <mxPoint as="offset" />
          </mxGeometry>
        </mxCell>
        <mxCell id="RCo3tT-71U8b_Dme8XYX-147" value="&lt;font style=&quot;font-size: 14px;&quot;&gt;Trabalha para&lt;/font&gt;" style="shape=rhombus;perimeter=rhombusPerimeter;whiteSpace=wrap;html=1;align=center;fontFamily=Helvetica;fontSize=11;fontColor=default;" parent="1" vertex="1">
          <mxGeometry x="2110" y="1227" width="120" height="60" as="geometry" />
        </mxCell>
        <mxCell id="RCo3tT-71U8b_Dme8XYX-148" value="&lt;font style=&quot;font-size: 24px;&quot;&gt;Aula 01&lt;/font&gt;" style="text;strokeColor=none;fillColor=none;html=1;fontSize=11;fontStyle=1;verticalAlign=middle;align=center;fontFamily=Helvetica;fontColor=default;" parent="1" vertex="1">
          <mxGeometry x="50" y="20" width="100" height="40" as="geometry" />
        </mxCell>
        <mxCell id="RCo3tT-71U8b_Dme8XYX-149" value="&lt;font style=&quot;font-size: 24px;&quot;&gt;Aula 02&lt;/font&gt;" style="text;strokeColor=none;fillColor=none;html=1;fontSize=11;fontStyle=1;verticalAlign=middle;align=center;fontFamily=Helvetica;fontColor=default;" parent="1" vertex="1">
          <mxGeometry x="870" y="20" width="100" height="40" as="geometry" />
        </mxCell>
        <mxCell id="RCo3tT-71U8b_Dme8XYX-150" value="&lt;font style=&quot;font-size: 24px;&quot;&gt;Aula 03&lt;/font&gt;" style="text;strokeColor=none;fillColor=none;html=1;fontSize=11;fontStyle=1;verticalAlign=middle;align=center;fontFamily=Helvetica;fontColor=default;" parent="1" vertex="1">
          <mxGeometry x="1730.5" y="40" width="100" height="40" as="geometry" />
        </mxCell>
        <mxCell id="RCo3tT-71U8b_Dme8XYX-151" style="edgeStyle=none;shape=connector;rounded=0;orthogonalLoop=1;jettySize=auto;html=1;labelBackgroundColor=default;strokeColor=default;fontFamily=Helvetica;fontSize=17;fontColor=default;endArrow=none;endFill=0;entryX=1;entryY=0.5;entryDx=0;entryDy=0;" parent="1" source="RCo3tT-71U8b_Dme8XYX-153" target="RCo3tT-71U8b_Dme8XYX-163" edge="1">
          <mxGeometry relative="1" as="geometry" />
        </mxCell>
        <mxCell id="RCo3tT-71U8b_Dme8XYX-152" value="N" style="edgeLabel;html=1;align=center;verticalAlign=middle;resizable=0;points=[];fontSize=15;fontFamily=Helvetica;fontColor=default;" parent="RCo3tT-71U8b_Dme8XYX-151" vertex="1" connectable="0">
          <mxGeometry x="0.4911" y="2" relative="1" as="geometry">
            <mxPoint x="10" y="-2" as="offset" />
          </mxGeometry>
        </mxCell>
        <mxCell id="RCo3tT-71U8b_Dme8XYX-153" value="Funcionario" style="whiteSpace=wrap;html=1;align=center;fontSize=14;" parent="1" vertex="1">
          <mxGeometry x="2278" y="1482.25" width="141" height="44.5" as="geometry" />
        </mxCell>
        <mxCell id="RCo3tT-71U8b_Dme8XYX-154" style="rounded=0;orthogonalLoop=1;jettySize=auto;html=1;endArrow=none;endFill=0;fontSize=14;" parent="1" source="RCo3tT-71U8b_Dme8XYX-155" target="RCo3tT-71U8b_Dme8XYX-153" edge="1">
          <mxGeometry relative="1" as="geometry">
            <mxPoint x="2548.5" y="1540" as="targetPoint" />
          </mxGeometry>
        </mxCell>
        <mxCell id="RCo3tT-71U8b_Dme8XYX-155" value="Nome" style="ellipse;whiteSpace=wrap;html=1;align=center;fontSize=14;" parent="1" vertex="1">
          <mxGeometry x="2284.5" y="1410" width="100" height="40" as="geometry" />
        </mxCell>
        <mxCell id="RCo3tT-71U8b_Dme8XYX-156" style="edgeStyle=none;shape=connector;rounded=0;orthogonalLoop=1;jettySize=auto;html=1;labelBackgroundColor=default;fontFamily=Helvetica;fontSize=14;fontColor=default;endArrow=none;endFill=0;" parent="1" source="RCo3tT-71U8b_Dme8XYX-157" target="RCo3tT-71U8b_Dme8XYX-153" edge="1">
          <mxGeometry relative="1" as="geometry">
            <mxPoint x="2548.5" y="1540" as="targetPoint" />
          </mxGeometry>
        </mxCell>
        <mxCell id="RCo3tT-71U8b_Dme8XYX-157" value="CPF" style="ellipse;whiteSpace=wrap;html=1;align=center;fontSize=14;" parent="1" vertex="1">
          <mxGeometry x="2440" y="1484.5" width="100" height="40" as="geometry" />
        </mxCell>
        <mxCell id="RCo3tT-71U8b_Dme8XYX-158" style="edgeStyle=none;shape=connector;rounded=0;orthogonalLoop=1;jettySize=auto;html=1;labelBackgroundColor=default;fontFamily=Helvetica;fontSize=14;fontColor=default;endArrow=none;endFill=0;" parent="1" source="RCo3tT-71U8b_Dme8XYX-153" target="RCo3tT-71U8b_Dme8XYX-159" edge="1">
          <mxGeometry relative="1" as="geometry">
            <mxPoint x="2473" y="1490" as="targetPoint" />
            <mxPoint x="2484" y="1350" as="sourcePoint" />
          </mxGeometry>
        </mxCell>
        <mxCell id="RCo3tT-71U8b_Dme8XYX-159" value="RG" style="ellipse;whiteSpace=wrap;html=1;align=center;fontSize=14;" parent="1" vertex="1">
          <mxGeometry x="2361" y="1560" width="100" height="40" as="geometry" />
        </mxCell>
        <mxCell id="RCo3tT-71U8b_Dme8XYX-160" style="edgeStyle=none;shape=connector;rounded=0;orthogonalLoop=1;jettySize=auto;html=1;labelBackgroundColor=default;strokeColor=default;fontFamily=Helvetica;fontSize=11;fontColor=default;endArrow=none;endFill=0;" parent="1" source="RCo3tT-71U8b_Dme8XYX-161" target="RCo3tT-71U8b_Dme8XYX-153" edge="1">
          <mxGeometry relative="1" as="geometry" />
        </mxCell>
        <mxCell id="RCo3tT-71U8b_Dme8XYX-161" value="IdFuncionario" style="ellipse;whiteSpace=wrap;html=1;align=center;fontStyle=4;fontFamily=Helvetica;fontSize=14;fontColor=default;" parent="1" vertex="1">
          <mxGeometry x="2400" y="1410" width="111.5" height="43" as="geometry" />
        </mxCell>
        <mxCell id="RCo3tT-71U8b_Dme8XYX-163" value="&lt;font style=&quot;font-size: 14px;&quot;&gt;Trabalha para&lt;/font&gt;" style="shape=rhombus;perimeter=rhombusPerimeter;whiteSpace=wrap;html=1;align=center;fontFamily=Helvetica;fontSize=11;fontColor=default;" parent="1" vertex="1">
          <mxGeometry x="2086.75" y="1474.5" width="120" height="60" as="geometry" />
        </mxCell>
        <mxCell id="RCo3tT-71U8b_Dme8XYX-173" value="" style="edgeStyle=none;shape=connector;rounded=0;orthogonalLoop=1;jettySize=auto;html=1;labelBackgroundColor=default;strokeColor=default;fontFamily=Helvetica;fontSize=15;fontColor=default;endArrow=none;endFill=0;" parent="1" source="RCo3tT-71U8b_Dme8XYX-164" target="RCo3tT-71U8b_Dme8XYX-163" edge="1">
          <mxGeometry relative="1" as="geometry" />
        </mxCell>
        <mxCell id="RCo3tT-71U8b_Dme8XYX-175" value="&lt;font style=&quot;font-size: 16px;&quot;&gt;N&lt;/font&gt;" style="edgeLabel;html=1;align=center;verticalAlign=middle;resizable=0;points=[];fontSize=13;fontFamily=Helvetica;fontColor=default;" parent="RCo3tT-71U8b_Dme8XYX-173" vertex="1" connectable="0">
          <mxGeometry x="0.1535" relative="1" as="geometry">
            <mxPoint as="offset" />
          </mxGeometry>
        </mxCell>
        <mxCell id="RCo3tT-71U8b_Dme8XYX-164" value="Projeto" style="whiteSpace=wrap;html=1;align=center;fontSize=14;" parent="1" vertex="1">
          <mxGeometry x="1811.75" y="1482.25" width="185.5" height="44.5" as="geometry" />
        </mxCell>
        <mxCell id="RCo3tT-71U8b_Dme8XYX-165" style="edgeStyle=none;shape=connector;rounded=0;orthogonalLoop=1;jettySize=auto;html=1;labelBackgroundColor=default;fontFamily=Helvetica;fontSize=14;fontColor=default;endArrow=none;endFill=0;" parent="1" source="RCo3tT-71U8b_Dme8XYX-174" target="RCo3tT-71U8b_Dme8XYX-164" edge="1">
          <mxGeometry relative="1" as="geometry">
            <mxPoint x="1924.25" y="1772.25" as="targetPoint" />
          </mxGeometry>
        </mxCell>
        <mxCell id="RCo3tT-71U8b_Dme8XYX-167" style="edgeStyle=none;shape=connector;rounded=0;orthogonalLoop=1;jettySize=auto;html=1;labelBackgroundColor=default;fontFamily=Helvetica;fontSize=14;fontColor=default;endArrow=none;endFill=0;" parent="1" source="RCo3tT-71U8b_Dme8XYX-168" target="RCo3tT-71U8b_Dme8XYX-164" edge="1">
          <mxGeometry relative="1" as="geometry">
            <mxPoint x="1924.25" y="1772.25" as="targetPoint" />
          </mxGeometry>
        </mxCell>
        <mxCell id="RCo3tT-71U8b_Dme8XYX-168" value="TotalHoras" style="ellipse;whiteSpace=wrap;html=1;align=center;fontSize=14;" parent="1" vertex="1">
          <mxGeometry x="1820.5" y="1550" width="100" height="40" as="geometry" />
        </mxCell>
        <mxCell id="RCo3tT-71U8b_Dme8XYX-169" style="edgeStyle=none;shape=connector;rounded=0;orthogonalLoop=1;jettySize=auto;html=1;labelBackgroundColor=default;fontFamily=Helvetica;fontSize=14;fontColor=default;endArrow=none;endFill=0;" parent="1" source="RCo3tT-71U8b_Dme8XYX-170" target="RCo3tT-71U8b_Dme8XYX-164" edge="1">
          <mxGeometry relative="1" as="geometry">
            <mxPoint x="1924.25" y="1772.25" as="targetPoint" />
            <mxPoint x="1989.25" y="1756.25" as="sourcePoint" />
          </mxGeometry>
        </mxCell>
        <mxCell id="RCo3tT-71U8b_Dme8XYX-170" value="Descricao" style="ellipse;whiteSpace=wrap;html=1;align=center;fontSize=14;" parent="1" vertex="1">
          <mxGeometry x="1897.25" y="1420" width="100" height="40" as="geometry" />
        </mxCell>
        <mxCell id="RCo3tT-71U8b_Dme8XYX-174" value="IdProjeto" style="ellipse;whiteSpace=wrap;html=1;align=center;fontStyle=4;fontFamily=Helvetica;fontSize=14;fontColor=default;" parent="1" vertex="1">
          <mxGeometry x="1751.5" y="1423.75" width="111.5" height="43" as="geometry" />
        </mxCell>
        <mxCell id="RCo3tT-71U8b_Dme8XYX-178" style="edgeStyle=none;shape=connector;rounded=0;orthogonalLoop=1;jettySize=auto;html=1;labelBackgroundColor=default;strokeColor=default;fontFamily=Helvetica;fontSize=11;fontColor=default;endArrow=none;endFill=0;" parent="1" source="RCo3tT-71U8b_Dme8XYX-177" target="RCo3tT-71U8b_Dme8XYX-163" edge="1">
          <mxGeometry relative="1" as="geometry" />
        </mxCell>
        <mxCell id="RCo3tT-71U8b_Dme8XYX-177" value="DtaEntrada" style="ellipse;whiteSpace=wrap;html=1;align=center;fontSize=14;" parent="1" vertex="1">
          <mxGeometry x="2038.25" y="1570" width="100" height="40" as="geometry" />
        </mxCell>
        <mxCell id="RCo3tT-71U8b_Dme8XYX-182" style="edgeStyle=none;shape=connector;rounded=0;orthogonalLoop=1;jettySize=auto;html=1;labelBackgroundColor=default;strokeColor=default;fontFamily=Helvetica;fontSize=11;fontColor=default;endArrow=none;endFill=0;" parent="1" source="RCo3tT-71U8b_Dme8XYX-179" target="RCo3tT-71U8b_Dme8XYX-163" edge="1">
          <mxGeometry relative="1" as="geometry" />
        </mxCell>
        <mxCell id="RCo3tT-71U8b_Dme8XYX-179" value="DtaSaida" style="ellipse;whiteSpace=wrap;html=1;align=center;fontSize=14;" parent="1" vertex="1">
          <mxGeometry x="2163.5" y="1570" width="100" height="40" as="geometry" />
        </mxCell>
        <mxCell id="RCo3tT-71U8b_Dme8XYX-181" style="edgeStyle=none;shape=connector;rounded=0;orthogonalLoop=1;jettySize=auto;html=1;labelBackgroundColor=default;strokeColor=default;fontFamily=Helvetica;fontSize=11;fontColor=default;endArrow=none;endFill=0;" parent="1" source="RCo3tT-71U8b_Dme8XYX-180" target="RCo3tT-71U8b_Dme8XYX-163" edge="1">
          <mxGeometry relative="1" as="geometry" />
        </mxCell>
        <mxCell id="RCo3tT-71U8b_Dme8XYX-180" value="QtdHoras" style="ellipse;whiteSpace=wrap;html=1;align=center;fontSize=14;" parent="1" vertex="1">
          <mxGeometry x="2095.5" y="1400" width="100" height="40" as="geometry" />
        </mxCell>
        <mxCell id="RCo3tT-71U8b_Dme8XYX-183" value="Funcionario" style="whiteSpace=wrap;html=1;align=center;fontSize=14;" parent="1" vertex="1">
          <mxGeometry x="1922" y="1780" width="141" height="44.5" as="geometry" />
        </mxCell>
        <mxCell id="RCo3tT-71U8b_Dme8XYX-184" style="rounded=0;orthogonalLoop=1;jettySize=auto;html=1;endArrow=none;endFill=0;fontSize=14;" parent="1" source="RCo3tT-71U8b_Dme8XYX-185" target="RCo3tT-71U8b_Dme8XYX-183" edge="1">
          <mxGeometry relative="1" as="geometry">
            <mxPoint x="2191" y="1840" as="targetPoint" />
          </mxGeometry>
        </mxCell>
        <mxCell id="RCo3tT-71U8b_Dme8XYX-185" value="Nome" style="ellipse;whiteSpace=wrap;html=1;align=center;fontSize=14;" parent="1" vertex="1">
          <mxGeometry x="1950.5" y="1720" width="100" height="40" as="geometry" />
        </mxCell>
        <mxCell id="RCo3tT-71U8b_Dme8XYX-186" style="edgeStyle=none;shape=connector;rounded=0;orthogonalLoop=1;jettySize=auto;html=1;labelBackgroundColor=default;fontFamily=Helvetica;fontSize=14;fontColor=default;endArrow=none;endFill=0;" parent="1" source="RCo3tT-71U8b_Dme8XYX-187" target="RCo3tT-71U8b_Dme8XYX-183" edge="1">
          <mxGeometry relative="1" as="geometry">
            <mxPoint x="2191" y="1840" as="targetPoint" />
          </mxGeometry>
        </mxCell>
        <mxCell id="RCo3tT-71U8b_Dme8XYX-187" value="CPF" style="ellipse;whiteSpace=wrap;html=1;align=center;fontSize=14;" parent="1" vertex="1">
          <mxGeometry x="1808.5" y="1784.5" width="100" height="40" as="geometry" />
        </mxCell>
        <mxCell id="RCo3tT-71U8b_Dme8XYX-188" style="edgeStyle=none;shape=connector;rounded=0;orthogonalLoop=1;jettySize=auto;html=1;labelBackgroundColor=default;fontFamily=Helvetica;fontSize=14;fontColor=default;endArrow=none;endFill=0;" parent="1" source="RCo3tT-71U8b_Dme8XYX-183" target="RCo3tT-71U8b_Dme8XYX-189" edge="1">
          <mxGeometry relative="1" as="geometry">
            <mxPoint x="2115.5" y="1790" as="targetPoint" />
            <mxPoint x="2126.5" y="1650" as="sourcePoint" />
          </mxGeometry>
        </mxCell>
        <mxCell id="RCo3tT-71U8b_Dme8XYX-189" value="RG" style="ellipse;whiteSpace=wrap;html=1;align=center;fontSize=14;" parent="1" vertex="1">
          <mxGeometry x="1840" y="1730" width="100" height="40" as="geometry" />
        </mxCell>
        <mxCell id="RCo3tT-71U8b_Dme8XYX-190" style="edgeStyle=none;shape=connector;rounded=0;orthogonalLoop=1;jettySize=auto;html=1;labelBackgroundColor=default;strokeColor=default;fontFamily=Helvetica;fontSize=11;fontColor=default;endArrow=none;endFill=0;" parent="1" source="RCo3tT-71U8b_Dme8XYX-191" target="RCo3tT-71U8b_Dme8XYX-183" edge="1">
          <mxGeometry relative="1" as="geometry" />
        </mxCell>
        <mxCell id="RCo3tT-71U8b_Dme8XYX-191" value="IdFuncionario" style="ellipse;whiteSpace=wrap;html=1;align=center;fontStyle=4;fontFamily=Helvetica;fontSize=14;fontColor=default;" parent="1" vertex="1">
          <mxGeometry x="2063" y="1730" width="111.5" height="43" as="geometry" />
        </mxCell>
        <mxCell id="RCo3tT-71U8b_Dme8XYX-194" style="edgeStyle=none;shape=connector;rounded=0;orthogonalLoop=1;jettySize=auto;html=1;labelBackgroundColor=default;strokeColor=default;fontFamily=Helvetica;fontSize=11;fontColor=default;endArrow=none;endFill=0;" parent="1" source="RCo3tT-71U8b_Dme8XYX-193" target="RCo3tT-71U8b_Dme8XYX-183" edge="1">
          <mxGeometry relative="1" as="geometry" />
        </mxCell>
        <mxCell id="RCo3tT-71U8b_Dme8XYX-193" value="&lt;font style=&quot;font-size: 15px;&quot;&gt;Telefone&lt;/font&gt;" style="ellipse;shape=doubleEllipse;margin=3;whiteSpace=wrap;html=1;align=center;fontFamily=Helvetica;fontSize=11;fontColor=default;" parent="1" vertex="1">
          <mxGeometry x="2095.5" y="1784.5" width="100" height="40" as="geometry" />
        </mxCell>
        <mxCell id="RCo3tT-71U8b_Dme8XYX-195" value="Funcionario" style="whiteSpace=wrap;html=1;align=center;fontSize=14;" parent="1" vertex="1">
          <mxGeometry x="1911" y="1940" width="141" height="44.5" as="geometry" />
        </mxCell>
        <mxCell id="RCo3tT-71U8b_Dme8XYX-196" style="rounded=0;orthogonalLoop=1;jettySize=auto;html=1;endArrow=none;endFill=0;fontSize=14;" parent="1" source="RCo3tT-71U8b_Dme8XYX-197" target="RCo3tT-71U8b_Dme8XYX-195" edge="1">
          <mxGeometry relative="1" as="geometry">
            <mxPoint x="2180" y="2000" as="targetPoint" />
          </mxGeometry>
        </mxCell>
        <mxCell id="RCo3tT-71U8b_Dme8XYX-197" value="Nome" style="ellipse;whiteSpace=wrap;html=1;align=center;fontSize=14;" parent="1" vertex="1">
          <mxGeometry x="1939.5" y="1880" width="100" height="40" as="geometry" />
        </mxCell>
        <mxCell id="RCo3tT-71U8b_Dme8XYX-198" style="edgeStyle=none;shape=connector;rounded=0;orthogonalLoop=1;jettySize=auto;html=1;labelBackgroundColor=default;fontFamily=Helvetica;fontSize=14;fontColor=default;endArrow=none;endFill=0;" parent="1" source="RCo3tT-71U8b_Dme8XYX-199" target="RCo3tT-71U8b_Dme8XYX-195" edge="1">
          <mxGeometry relative="1" as="geometry">
            <mxPoint x="2180" y="2000" as="targetPoint" />
          </mxGeometry>
        </mxCell>
        <mxCell id="RCo3tT-71U8b_Dme8XYX-199" value="CPF" style="ellipse;whiteSpace=wrap;html=1;align=center;fontSize=14;" parent="1" vertex="1">
          <mxGeometry x="1797.5" y="1944.5" width="100" height="40" as="geometry" />
        </mxCell>
        <mxCell id="RCo3tT-71U8b_Dme8XYX-200" style="edgeStyle=none;shape=connector;rounded=0;orthogonalLoop=1;jettySize=auto;html=1;labelBackgroundColor=default;fontFamily=Helvetica;fontSize=14;fontColor=default;endArrow=none;endFill=0;" parent="1" source="RCo3tT-71U8b_Dme8XYX-195" target="RCo3tT-71U8b_Dme8XYX-201" edge="1">
          <mxGeometry relative="1" as="geometry">
            <mxPoint x="2104.5" y="1950" as="targetPoint" />
            <mxPoint x="2115.5" y="1810" as="sourcePoint" />
          </mxGeometry>
        </mxCell>
        <mxCell id="RCo3tT-71U8b_Dme8XYX-201" value="RG" style="ellipse;whiteSpace=wrap;html=1;align=center;fontSize=14;" parent="1" vertex="1">
          <mxGeometry x="1829" y="1890" width="100" height="40" as="geometry" />
        </mxCell>
        <mxCell id="RCo3tT-71U8b_Dme8XYX-202" style="edgeStyle=none;shape=connector;rounded=0;orthogonalLoop=1;jettySize=auto;html=1;labelBackgroundColor=default;strokeColor=default;fontFamily=Helvetica;fontSize=11;fontColor=default;endArrow=none;endFill=0;" parent="1" source="RCo3tT-71U8b_Dme8XYX-203" target="RCo3tT-71U8b_Dme8XYX-195" edge="1">
          <mxGeometry relative="1" as="geometry" />
        </mxCell>
        <mxCell id="RCo3tT-71U8b_Dme8XYX-203" value="IdFuncionario" style="ellipse;whiteSpace=wrap;html=1;align=center;fontStyle=4;fontFamily=Helvetica;fontSize=14;fontColor=default;" parent="1" vertex="1">
          <mxGeometry x="2052" y="1890" width="111.5" height="43" as="geometry" />
        </mxCell>
        <mxCell id="RCo3tT-71U8b_Dme8XYX-204" style="edgeStyle=none;shape=connector;rounded=0;orthogonalLoop=1;jettySize=auto;html=1;labelBackgroundColor=default;strokeColor=default;fontFamily=Helvetica;fontSize=11;fontColor=default;endArrow=none;endFill=0;" parent="1" source="RCo3tT-71U8b_Dme8XYX-205" target="RCo3tT-71U8b_Dme8XYX-195" edge="1">
          <mxGeometry relative="1" as="geometry" />
        </mxCell>
        <mxCell id="RCo3tT-71U8b_Dme8XYX-205" value="&lt;font style=&quot;font-size: 15px;&quot;&gt;Telefone&lt;/font&gt;" style="ellipse;shape=doubleEllipse;margin=3;whiteSpace=wrap;html=1;align=center;fontFamily=Helvetica;fontSize=11;fontColor=default;" parent="1" vertex="1">
          <mxGeometry x="2084.5" y="1944.5" width="100" height="40" as="geometry" />
        </mxCell>
        <mxCell id="RCo3tT-71U8b_Dme8XYX-207" style="edgeStyle=none;shape=connector;rounded=0;orthogonalLoop=1;jettySize=auto;html=1;labelBackgroundColor=default;strokeColor=default;fontFamily=Helvetica;fontSize=11;fontColor=default;endArrow=none;endFill=0;" parent="1" source="RCo3tT-71U8b_Dme8XYX-206" target="RCo3tT-71U8b_Dme8XYX-205" edge="1">
          <mxGeometry relative="1" as="geometry" />
        </mxCell>
        <mxCell id="RCo3tT-71U8b_Dme8XYX-206" value="Numero" style="ellipse;whiteSpace=wrap;html=1;align=center;fontSize=14;" parent="1" vertex="1">
          <mxGeometry x="2195.5" y="1915" width="100" height="40" as="geometry" />
        </mxCell>
        <mxCell id="RCo3tT-71U8b_Dme8XYX-209" style="edgeStyle=none;shape=connector;rounded=0;orthogonalLoop=1;jettySize=auto;html=1;labelBackgroundColor=default;strokeColor=default;fontFamily=Helvetica;fontSize=11;fontColor=default;endArrow=none;endFill=0;" parent="1" source="RCo3tT-71U8b_Dme8XYX-208" target="RCo3tT-71U8b_Dme8XYX-205" edge="1">
          <mxGeometry relative="1" as="geometry" />
        </mxCell>
        <mxCell id="RCo3tT-71U8b_Dme8XYX-208" value="Tipo" style="ellipse;whiteSpace=wrap;html=1;align=center;fontSize=14;" parent="1" vertex="1">
          <mxGeometry x="2203" y="1975" width="100" height="40" as="geometry" />
        </mxCell>
        <mxCell id="RCo3tT-71U8b_Dme8XYX-210" value="Entidade Fraca" style="shape=ext;margin=3;double=1;whiteSpace=wrap;html=1;align=center;fontFamily=Helvetica;fontSize=15;fontColor=default;" parent="1" vertex="1">
          <mxGeometry x="1370.5" y="2420" width="149.5" height="60" as="geometry" />
        </mxCell>
        <mxCell id="RCo3tT-71U8b_Dme8XYX-211" value="Relação&lt;br style=&quot;font-size: 15px;&quot;&gt;Identificadora" style="shape=rhombus;double=1;perimeter=rhombusPerimeter;whiteSpace=wrap;html=1;align=center;fontFamily=Helvetica;fontSize=15;fontColor=default;" parent="1" vertex="1">
          <mxGeometry x="1531" y="2410" width="180" height="80" as="geometry" />
        </mxCell>
        <mxCell id="RCo3tT-71U8b_Dme8XYX-212" value="&lt;span style=&quot;border-bottom: 1px dotted; font-size: 15px;&quot;&gt;Atributo Chave Parcial&lt;/span&gt;" style="ellipse;whiteSpace=wrap;html=1;align=center;fontFamily=Helvetica;fontSize=15;fontColor=default;" parent="1" vertex="1">
          <mxGeometry x="1200" y="2420" width="150" height="60" as="geometry" />
        </mxCell>
      </root>
    </mxGraphModel>
  </diagram>
</mxfile>
